<?xml version="1.0" encoding="utf-8"?>
<!-- Generator: Adobe Illustrator 19.0.0, SVG Export Plug-In . SVG Version: 6.00 Build 0)  -->
<svg version="1.1" id="Layer_1" xmlns="http://www.w3.org/2000/svg" xmlns:xlink="http://www.w3.org/1999/xlink" x="0px" y="0px"
	 viewBox="0 0 319 135" style="enable-background:new 0 0 319 135;" xml:space="preserve">
<style type="text/css">
	.st0{fill:#FFFFFF;}
</style>
<g id="XMLID_124_">
	<path id="XMLID_125_" class="st0" d="M93.8,71.5V39.8h-5.1v-5.1h5.1V33c0-5.2,1.2-9.9,4.3-12.8c2.5-2.4,5.9-3.4,9-3.4
		c2.4,0,4.4,0.5,5.7,1.1l-0.9,5.2c-1-0.5-2.3-0.8-4.3-0.8c-5.7,0-7.1,4.9-7.1,10.6v2h8.9v5.1h-8.9v31.7H93.8z"/>
	<path id="XMLID_127_" class="st0" d="M125,24.4c0,2.3-1.6,4.1-4.3,4.1c-2.4,0-4-1.8-4-4.1s1.7-4.2,4.2-4.2
		C123.3,20.2,125,22,125,24.4z M117.6,71.5V34.7h6.7v36.8H117.6z"/>
	<path id="XMLID_130_" class="st0" d="M135.3,44.7c0-3.9-0.1-6.9-0.3-10h5.9l0.4,6.1h0.2c1.8-3.4,6.1-6.8,12.2-6.8
		c5.1,0,13,3,13,15.7v21.9H160V50.3c0-5.9-2.2-10.9-8.5-10.9c-4.3,0-7.8,3.1-9,6.8c-0.3,0.8-0.5,2-0.5,3.1v22.1h-6.7V44.7z"/>
	<path id="XMLID_132_" class="st0" d="M204.9,62.7c0,3.2,0.2,6.3,0.5,8.8h-6l-0.5-4.6h-0.2c-2.1,2.9-6,5.5-11.2,5.5
		c-7.4,0-11.2-5.2-11.2-10.6c0-8.9,7.9-13.8,22.1-13.7v-0.8c0-3-0.8-8.5-8.4-8.4c-3.5,0-7.1,1-9.7,2.7l-1.5-4.5
		c3-1.9,7.5-3.2,12.2-3.2c11.2,0,14,7.7,14,15V62.7z M198.4,52.7c-7.3-0.2-15.6,1.1-15.6,8.3c0,4.4,2.9,6.4,6.2,6.4c4.9,0,8-3,9-6.2
		c0.2-0.8,0.3-1.5,0.3-2.1V52.7z"/>
	<path id="XMLID_135_" class="st0" d="M248.7,66.1c0,8.5-1.7,13.6-5.2,16.9c-3.6,3.3-8.8,4.4-13.5,4.4c-4.4,0-9.3-1.1-12.2-3
		l1.7-5.2c2.4,1.6,6.2,3,10.8,3c6.8,0,11.9-3.6,11.9-12.9v-4h-0.2c-2,3.4-6,6.2-11.7,6.2c-9.1,0-15.7-7.8-15.7-17.9
		c0-12.5,8.1-19.5,16.6-19.5c6.4,0,9.8,3.3,11.5,6.3h0.2l0.2-5.5h5.9c-0.2,2.6-0.3,5.6-0.3,10V66.1z M242,49.3c0-1.1-0.1-2.1-0.4-3
		c-1.2-4-4.4-7.1-9.3-7.1c-6.4,0-10.9,5.4-10.9,13.9c0,7.2,3.7,13.2,10.9,13.2c4.2,0,7.9-2.6,9.3-6.8c0.4-1.1,0.5-2.4,0.5-3.6V49.3z
		"/>
	<path id="XMLID_138_" class="st0" d="M264.9,54.3c0.2,9,5.9,12.8,12.6,12.8c4.8,0,7.8-0.8,10.2-1.9l1.2,4.8
		c-2.4,1.1-6.5,2.4-12.3,2.4c-11.3,0-18.1-7.5-18.1-18.6c0-11.1,6.5-19.8,17.3-19.8c12.1,0,15.2,10.5,15.2,17.3
		c0,1.4-0.1,2.4-0.2,3.1H264.9z M284.5,49.6c0.1-4.2-1.7-10.8-9.3-10.8c-6.8,0-9.7,6.2-10.3,10.8H284.5z"/>
	<path id="XMLID_141_" class="st0" d="M300.8,46.2c0-4.3-0.1-8.1-0.3-11.5h5.9l0.3,7.3h0.2c1.7-4.9,5.8-8.1,10.3-8.1
		c0.7,0,1.2,0.1,1.8,0.2v6.3c-0.7-0.2-1.4-0.2-2.3-0.2c-4.7,0-8.1,3.5-9,8.5c-0.2,0.9-0.2,2.1-0.2,3.1v19.6h-6.7V46.2z"/>
</g>
<g id="XMLID_51_">
	<path id="XMLID_78_" class="st0" d="M164.1,104.8v-4.9l-3.6-6.6h1.7l1.6,3.2c0.4,0.9,0.8,1.6,1.1,2.4h0c0.3-0.7,0.7-1.5,1.2-2.4
		l1.6-3.2h1.7l-3.8,6.6v4.9H164.1z"/>
	<path id="XMLID_80_" class="st0" d="M176.9,100.6c0,3-2.1,4.4-4.1,4.4c-2.2,0-3.9-1.6-3.9-4.2c0-2.7,1.8-4.4,4.1-4.4
		C175.3,96.4,176.9,98.1,176.9,100.6z M170.4,100.7c0,1.8,1,3.2,2.5,3.2c1.4,0,2.5-1.3,2.5-3.2c0-1.4-0.7-3.1-2.5-3.1
		C171.1,97.5,170.4,99.2,170.4,100.7z"/>
	<path id="XMLID_83_" class="st0" d="M185.7,102.5c0,0.9,0,1.6,0.1,2.3h-1.3l-0.1-1.3h0c-0.4,0.7-1.3,1.5-2.7,1.5
		c-1.3,0-2.8-0.7-2.8-3.6v-4.8h1.5v4.5c0,1.6,0.5,2.6,1.8,2.6c1,0,1.7-0.7,2-1.4c0.1-0.2,0.1-0.5,0.1-0.8v-5h1.5V102.5z"/>
	<path id="XMLID_85_" class="st0" d="M188.1,99.1c0-1,0-1.8-0.1-2.6h1.3l0.1,1.6h0.1c0.4-1.1,1.3-1.8,2.3-1.8c0.2,0,0.3,0,0.4,0v1.4
		c-0.2,0-0.3,0-0.5,0c-1.1,0-1.8,0.8-2,1.9c0,0.2-0.1,0.5-0.1,0.7v4.4h-1.5V99.1z"/>
	<path id="XMLID_87_" class="st0" d="M197.3,93.3h6.2v1.2h-4.7v3.8h4.3v1.2h-4.3v5.2h-1.5V93.3z"/>
	<path id="XMLID_89_" class="st0" d="M206.8,94.3c0,0.5-0.4,0.9-1,0.9c-0.5,0-0.9-0.4-0.9-0.9s0.4-0.9,0.9-0.9
		C206.4,93.3,206.8,93.7,206.8,94.3z M205.1,104.8v-8.2h1.5v8.2H205.1z"/>
	<path id="XMLID_93_" class="st0" d="M209.1,98.8c0-0.9,0-1.5-0.1-2.2h1.3l0.1,1.4h0c0.4-0.8,1.4-1.5,2.7-1.5c1.1,0,2.9,0.7,2.9,3.5
		v4.9h-1.5v-4.7c0-1.3-0.5-2.4-1.9-2.4c-1,0-1.7,0.7-2,1.5c-0.1,0.2-0.1,0.4-0.1,0.7v4.9h-1.5V98.8z"/>
	<path id="XMLID_95_" class="st0" d="M224.3,102.8c0,0.7,0,1.4,0.1,2h-1.3l-0.1-1h-0.1c-0.5,0.6-1.3,1.2-2.5,1.2
		c-1.7,0-2.5-1.2-2.5-2.4c0-2,1.8-3.1,4.9-3.1v-0.2c0-0.7-0.2-1.9-1.9-1.9c-0.8,0-1.6,0.2-2.2,0.6l-0.3-1c0.7-0.4,1.7-0.7,2.7-0.7
		c2.5,0,3.1,1.7,3.1,3.3V102.8z M222.9,100.6c-1.6,0-3.5,0.3-3.5,1.9c0,1,0.6,1.4,1.4,1.4c1.1,0,1.8-0.7,2-1.4
		c0.1-0.2,0.1-0.3,0.1-0.5V100.6z"/>
	<path id="XMLID_98_" class="st0" d="M226.7,98.8c0-0.9,0-1.5-0.1-2.2h1.3l0.1,1.4h0c0.4-0.8,1.4-1.5,2.7-1.5c1.1,0,2.9,0.7,2.9,3.5
		v4.9h-1.5v-4.7c0-1.3-0.5-2.4-1.9-2.4c-1,0-1.7,0.7-2,1.5c-0.1,0.2-0.1,0.4-0.1,0.7v4.9h-1.5V98.8z"/>
	<path id="XMLID_101_" class="st0" d="M242,104.5c-0.4,0.2-1.3,0.5-2.4,0.5c-2.5,0-4.1-1.7-4.1-4.2c0-2.5,1.7-4.4,4.4-4.4
		c0.9,0,1.7,0.2,2.1,0.4l-0.3,1.1c-0.4-0.2-0.9-0.4-1.7-0.4c-1.9,0-2.9,1.4-2.9,3.1c0,1.9,1.2,3.1,2.9,3.1c0.8,0,1.4-0.2,1.8-0.4
		L242,104.5z"/>
	<path id="XMLID_103_" class="st0" d="M244.5,101c0,2,1.3,2.9,2.8,2.9c1.1,0,1.7-0.2,2.3-0.4l0.3,1.1c-0.5,0.2-1.4,0.5-2.8,0.5
		c-2.5,0-4-1.7-4-4.2c0-2.5,1.5-4.4,3.9-4.4c2.7,0,3.4,2.3,3.4,3.9c0,0.3,0,0.5-0.1,0.7H244.5z M248.9,99.9c0-0.9-0.4-2.4-2.1-2.4
		c-1.5,0-2.2,1.4-2.3,2.4H248.9z"/>
	<path id="XMLID_106_" class="st0" d="M265.5,99.8c-0.1-1.6-0.2-3.5-0.2-4.9h0c-0.4,1.3-0.9,2.8-1.4,4.4l-2,5.6h-1.1l-1.9-5.5
		c-0.5-1.6-1-3.1-1.3-4.5h0c0,1.4-0.1,3.3-0.2,5.1l-0.3,4.9h-1.4l0.8-11.5h1.9l2,5.5c0.5,1.4,0.9,2.7,1.2,3.9h0
		c0.3-1.2,0.7-2.4,1.2-3.9l2-5.5h1.9l0.7,11.5h-1.5L265.5,99.8z"/>
	<path id="XMLID_108_" class="st0" d="M275.4,102.8c0,0.7,0,1.4,0.1,2h-1.3l-0.1-1H274c-0.5,0.6-1.3,1.2-2.5,1.2
		c-1.7,0-2.5-1.2-2.5-2.4c0-2,1.8-3.1,4.9-3.1v-0.2c0-0.7-0.2-1.9-1.9-1.9c-0.8,0-1.6,0.2-2.2,0.6l-0.3-1c0.7-0.4,1.7-0.7,2.7-0.7
		c2.5,0,3.1,1.7,3.1,3.3V102.8z M273.9,100.6c-1.6,0-3.5,0.3-3.5,1.9c0,1,0.6,1.4,1.4,1.4c1.1,0,1.8-0.7,2-1.4
		c0.1-0.2,0.1-0.3,0.1-0.5V100.6z"/>
	<path id="XMLID_111_" class="st0" d="M277.8,98.8c0-0.9,0-1.5-0.1-2.2h1.3l0.1,1.4h0c0.4-0.8,1.4-1.5,2.7-1.5
		c1.1,0,2.9,0.7,2.9,3.5v4.9h-1.5v-4.7c0-1.3-0.5-2.4-1.9-2.4c-1,0-1.7,0.7-2,1.5c-0.1,0.2-0.1,0.4-0.1,0.7v4.9h-1.5V98.8z"/>
	<path id="XMLID_113_" class="st0" d="M293,102.8c0,0.7,0,1.4,0.1,2h-1.3l-0.1-1h-0.1c-0.5,0.6-1.3,1.2-2.5,1.2
		c-1.7,0-2.5-1.2-2.5-2.4c0-2,1.8-3.1,4.9-3.1v-0.2c0-0.7-0.2-1.9-1.9-1.9c-0.8,0-1.6,0.2-2.2,0.6l-0.3-1c0.7-0.4,1.7-0.7,2.7-0.7
		c2.5,0,3.1,1.7,3.1,3.3V102.8z M291.6,100.6c-1.6,0-3.5,0.3-3.5,1.9c0,1,0.6,1.4,1.4,1.4c1.1,0,1.8-0.7,2-1.4
		c0.1-0.2,0.1-0.3,0.1-0.5V100.6z"/>
	<path id="XMLID_116_" class="st0" d="M302.4,103.6c0,1.9-0.4,3-1.2,3.8c-0.8,0.7-2,1-3,1c-1,0-2.1-0.2-2.7-0.7l0.4-1.2
		c0.5,0.4,1.4,0.7,2.4,0.7c1.5,0,2.7-0.8,2.7-2.9v-0.9h0c-0.4,0.8-1.3,1.4-2.6,1.4c-2,0-3.5-1.7-3.5-4c0-2.8,1.8-4.4,3.7-4.4
		c1.4,0,2.2,0.7,2.6,1.4h0l0.1-1.2h1.3c-0.1,0.6-0.1,1.3-0.1,2.2V103.6z M301,99.8c0-0.3,0-0.5-0.1-0.7c-0.3-0.9-1-1.6-2.1-1.6
		c-1.4,0-2.4,1.2-2.4,3.1c0,1.6,0.8,3,2.4,3c0.9,0,1.8-0.6,2.1-1.5c0.1-0.3,0.1-0.5,0.1-0.8V99.8z"/>
	<path id="XMLID_119_" class="st0" d="M305.7,101c0,2,1.3,2.9,2.8,2.9c1.1,0,1.7-0.2,2.3-0.4l0.3,1.1c-0.5,0.2-1.4,0.5-2.8,0.5
		c-2.5,0-4-1.7-4-4.2c0-2.5,1.5-4.4,3.9-4.4c2.7,0,3.4,2.3,3.4,3.9c0,0.3,0,0.5-0.1,0.7H305.7z M310.1,99.9c0-0.9-0.4-2.4-2.1-2.4
		c-1.5,0-2.2,1.4-2.3,2.4H310.1z"/>
	<path id="XMLID_122_" class="st0" d="M313.4,99.1c0-1,0-1.8-0.1-2.6h1.3l0.1,1.6h0.1c0.4-1.1,1.3-1.8,2.3-1.8c0.2,0,0.3,0,0.4,0
		v1.4c-0.2,0-0.3,0-0.5,0c-1.1,0-1.8,0.8-2,1.9c0,0.2-0.1,0.5-0.1,0.7v4.4h-1.5V99.1z"/>
</g>
<g id="XMLID_16_">
	<path id="XMLID_28_" class="st0" d="M30.1,44.8l47.8,0c0,0,2-0.1,2,2.1c0,2.2-2,2.1-2,2.1l-47.8,0c0,0-2,0-2-2.1
		C28.1,44.8,30.1,44.8,30.1,44.8z"/>
	<path id="XMLID_35_" class="st0" d="M30.1,57.2h41.6c0,0,2.1,0,2.1,2.1s-2.1,2.1-2.1,2.1H30.1c0,0-2,0-2-2.1
		C28.1,57.2,30.1,57.2,30.1,57.2z"/>
	<g id="XMLID_36_">
		<path id="XMLID_37_" class="st0" d="M6.7,6.5c0,0-1.6,0.8-4.4,0.6c-2.8-0.2-1.8-1.5-1.8-1.5s0.3-0.6,2.6-1.8s5.8-2.6,9.1-3.1
			s9-1.1,16.8,2.1s21.1,12.2,26.2,36.8s4.5,45.2,18.1,65.6s33.7,26.7,47.1,24.3c13.3-2.4,18.9-9.7,22.6-15
			c3.7-5.3,6.7-15.7,2.1-23.1c-4.6-7.4-14.9-9.1-14.9-9.1s-5.8-1.3-7.5-1.4c-1.7-0.1-2.3-1.1-1.2-2.2c1-1.1,2.8-2,5.5-2.1
			c2.7-0.1,12.1,1.5,16.9,4c4.8,2.6,15.8,7.9,10.9,25.8s-23.3,25.3-33.8,27.3c-10.5,2-29.7,2.1-47.8-15.6S51.7,73.5,50.9,67.4
			s-2.8-44.9-23.1-58C21.2,5.3,14,2.3,6.7,6.5z"/>
	</g>
</g>
</svg>
