<?xml version="1.0" encoding="utf-8"?>
<!-- Generator: Adobe Illustrator 19.0.0, SVG Export Plug-In . SVG Version: 6.00 Build 0)  -->
<svg version="1.1" id="Layer_1" xmlns="http://www.w3.org/2000/svg" xmlns:xlink="http://www.w3.org/1999/xlink" x="0px" y="0px"
	 viewBox="0 0 212 124" style="enable-background:new 0 0 212 124;" xml:space="preserve">
<style type="text/css">
	.st0{stroke:url(#XMLID_2_);stroke-width:0.25;stroke-miterlimit:10;}
	.st1{stroke:url(#XMLID_3_);stroke-width:0.25;stroke-miterlimit:10;}
	.st2{stroke:url(#XMLID_5_);stroke-width:0.25;stroke-miterlimit:10;}
	.st3{stroke:url(#XMLID_9_);stroke-width:0.25;stroke-miterlimit:10;}
	.st4{stroke:url(#XMLID_10_);stroke-width:0.25;stroke-miterlimit:10;}
	.st5{stroke:url(#XMLID_36_);stroke-width:0.25;stroke-miterlimit:10;}
	.st6{stroke:url(#XMLID_37_);stroke-width:0.25;stroke-miterlimit:10;}
	.st7{stroke:url(#XMLID_38_);stroke-width:0.25;stroke-miterlimit:10;}
	.st8{stroke:url(#XMLID_39_);stroke-width:0.25;stroke-miterlimit:10;}
	.st9{stroke:url(#XMLID_40_);stroke-width:0.25;stroke-miterlimit:10;}
	.st10{stroke:url(#XMLID_41_);stroke-width:0.25;stroke-miterlimit:10;}
	.st11{stroke:url(#XMLID_42_);stroke-width:0.25;stroke-miterlimit:10;}
</style>
<g id="XMLID_6_">
	<linearGradient id="XMLID_2_" gradientUnits="userSpaceOnUse" x1="18.8233" y1="31.0119" x2="52.8683" y2="31.0119">
		<stop  offset="0" style="stop-color:#FFFFFF"/>
		<stop  offset="1" style="stop-color:#000000"/>
	</linearGradient>
	<path id="XMLID_7_" class="st0" d="M27,37c-2.2,0-3.5-0.6-3.5-1.6c0-1.5,4-3.7,4.7-3.7c0,0,0.1,0,0.1,0c-0.9,0.5-3.8,2.3-3.8,3.5
		c0,0.1,0.2,0.3,0.7,0.3c0.8,0,1.8-0.1,3-0.4c4.7-7.2,12-15.6,14.1-15.6c1,0,2.1,1,2.3,2.1c-0.2-0.3-0.5-0.4-0.8-0.4
		c-1.6,0-7.6,6.7-12.3,13c8.4-2.6,19.9-8.7,19.9-13.1c0-2.6-3.6-4.1-8.4-4.1c-9.7,0-22.1,8.3-22.1,11.9c0,1.1,1.3,1.8,2,1.9
		c0,0,0,0-0.4,0c-2,0-3.5-0.6-3.5-2.6c0-3.8,9.9-11.9,24.2-11.9c3,0,9.6,1.2,9.6,5.7c0,7.3-15.5,13.3-23,14.7
		c-2.6,3.6-4.5,6.8-4.5,7.9c0,0.5,0,0.9,0.5,1c-0.1,0.1-0.3,0.1-0.4,0.1c-0.7,0-1.2-0.7-1.2-1.7C24.1,42.5,25.2,39.9,27,37z"/>
	<linearGradient id="XMLID_3_" gradientUnits="userSpaceOnUse" x1="44.0392" y1="34.1432" x2="57.4969" y2="34.1432">
		<stop  offset="0" style="stop-color:#FFFFFF"/>
		<stop  offset="1" style="stop-color:#000000"/>
	</linearGradient>
	<path id="XMLID_11_" class="st1" d="M46.5,38c0,0.3,0.2,0.5,0.8,0.5c2,0,7.1-3.8,9.8-6.2c0.1-0.1,0.3,0.1,0.2,0.2
		c-2.1,1.9-7.6,7.2-11.2,7.2c-0.9,0-2-1-2-1.7c0-0.7,0.2-1.2,0.4-1.8c0.7-1.6,2.1-3.3,3.8-4.8c2.3-1.9,4.7-2.8,5.9-2.8
		c0.4,0,1.7,0.6,1.7,1.4c0,1.7-5.3,5.7-8.4,5.8C47.1,36.3,46.6,37.2,46.5,38z M47.9,35.2c2.4-0.3,7-4.7,7.1-5.8
		C52,30.4,48.9,33.8,47.9,35.2z"/>
	<linearGradient id="XMLID_5_" gradientUnits="userSpaceOnUse" x1="53.4353" y1="34.336" x2="68.9746" y2="34.336">
		<stop  offset="0" style="stop-color:#FFFFFF"/>
		<stop  offset="1" style="stop-color:#000000"/>
	</linearGradient>
	<path id="XMLID_14_" class="st2" d="M59.9,28.8c0.2-0.1,0.3-0.1,0.4-0.1c0.7,0,1.7,1.1,1.7,1.8c0,0.1-0.1,0-0.3-0.1
		c-0.4,0-1.4,1-2.2,2.2c-0.7,1-1.7,2.3-2.3,3.3c1.5-1.9,4.2-4.2,6.6-5.9c1.1-0.8,1.9-1.2,2.5-1.3c0.3,0,1.4,1.2,1.2,1.4
		c-0.6,0.6-2.9,2.6-3.8,4.8c1.3-0.1,3.2-1.4,4.9-2.9c0,0,0.2-0.1,0.2,0c-0.5,0.7-3.8,3.8-5.7,3.8c-0.5,0-1.3-1-1.3-1.3
		c0-0.8,0.9-2.4,1.6-3.2c-2.5,1.5-3.8,2.6-5.7,4.7c-1.4,1.5-3.1,3.9-2.5,4.2c-0.8,0.2-1.5-0.7-1.7-1.4c-0.1-0.2,0.1-0.8,0.4-1.4
		c0.7-1.6,1.9-3.5,3-5C58,30.8,59.2,29.3,59.9,28.8z"/>
	<linearGradient id="XMLID_9_" gradientUnits="userSpaceOnUse" x1="64.1232" y1="34.0602" x2="78.5073" y2="34.0602">
		<stop  offset="0" style="stop-color:#FFFFFF"/>
		<stop  offset="1" style="stop-color:#000000"/>
	</linearGradient>
	<path id="XMLID_16_" class="st3" d="M69.1,33.5c-0.1,0.5,0.6,0.9,0.8,1.2c4.4-2.5,7.9-3.1,8.3-3.1c0.1,0,0.2,0.1,0.2,0.1
		c0.2,0.1-5.2,1.5-8.2,3.3c0.4,0.3,1,1.1,1,1.7c-0.4,1.8-4,3.3-5.8,3.3c-0.6,0-0.9-0.5-1-1.1c0.1-1.2,4.1-3.5,5.1-3.9
		c-0.3-0.4-1.9-1.4-1.7-2.6c0.4-2.1,4.4-4.2,6.8-4.2c0.8,0,1.1,1.3,1,2.1c0,0.4-1.8,2-2.5,2c0,0-0.1-0.1-0.1-0.1
		c0.1,0,1.9-1.9,2-2.5C73.7,29.6,69.4,32.2,69.1,33.5z M65,38.5c1.1-0.3,4.5-2.1,4.5-3.1C67.8,36.3,65.8,37.7,65,38.5z"/>
	<linearGradient id="XMLID_10_" gradientUnits="userSpaceOnUse" x1="72.9513" y1="34.1868" x2="89.7735" y2="34.1868">
		<stop  offset="0" style="stop-color:#FFFFFF"/>
		<stop  offset="1" style="stop-color:#000000"/>
	</linearGradient>
	<path id="XMLID_19_" class="st4" d="M84.4,29.1c-5,0-10.8,9.3-9.2,10c1.5,0.6,5.5-3.8,7.3-6.6c-0.1-0.2-0.4-1.1-0.3-1.4
		c0.1-0.3,0.9-1.1,1.3-1.1c0.3,0,0.6,0.2,0.6,0.3c0.5,0.9,1.2,1.5,2.3,1.4c1.8-0.2,2.9-1.2,3.2-1.2c-0.1,0.4-1.2,1.3-2.6,1.7
		c-0.6,0.2-1.2,0.2-1.6,0.2c-0.4,0-0.7-0.1-0.8-0.1c-0.7,3.7-6.5,7.6-9.4,7.5c-1.3-0.1-2.1-1.1-2.1-2.2c0-4.5,6-9,10.4-9
		c1,0,1.5,0.3,1.7,0.5c0.1,0.1,0.1,0.1-0.1,0.1C84.8,29.1,84.6,29.1,84.4,29.1z"/>
	<linearGradient id="XMLID_36_" gradientUnits="userSpaceOnUse" x1="83.5899" y1="34.3359" x2="100.7319" y2="34.3359">
		<stop  offset="0" style="stop-color:#FFFFFF"/>
		<stop  offset="1" style="stop-color:#000000"/>
	</linearGradient>
	<path id="XMLID_21_" class="st5" d="M92.9,38.2c1.7-0.5,5.7-4.2,7.4-5.9c0.2-0.1,0.3,0.1,0.2,0.2c-2.4,2.6-6.9,7.2-8.6,7.2
		c-0.3,0-0.6-0.2-0.9-0.6c-0.3-0.4-0.5-0.8-0.5-1.1c0-1.6,3.2-6.2,4.6-7.5c-2.3,1-6.3,4.4-8.4,6.6c-0.4,0.4-0.7,0.8-1,1.2
		c-0.7,0.9-0.9,1.6-0.5,1.8c-0.8,0.2-1.5-0.7-1.7-1.5c-0.1-0.2,0.1-0.9,0.8-2.2c0.7-1.3,1.7-2.9,2.6-4.2c1-1.4,2.2-2.9,2.9-3.4
		c0.1-0.1,0.3-0.1,0.4-0.1c0.7,0,1.7,1.1,1.7,1.8c0,0.1-0.1,0-0.3-0.1c-0.4,0-1.4,1.1-2.2,2.2c-1.3,1.7-2.7,3.8-3.1,4.5
		c0.3-0.4,0.8-1,1.4-1.5c3.1-3,7.9-6.8,8.9-6.8c0.7,0,1.5,1.5,1.2,1.8C97.2,31.1,93,36.9,92.9,38.2z"/>
	<linearGradient id="XMLID_37_" gradientUnits="userSpaceOnUse" x1="96.1534" y1="34.1432" x2="113.3675" y2="34.1432">
		<stop  offset="0" style="stop-color:#FFFFFF"/>
		<stop  offset="1" style="stop-color:#000000"/>
	</linearGradient>
	<path id="XMLID_23_" class="st6" d="M105.1,34.2c-0.8,0.8-6.2,5.5-7.4,5.5c-0.1,0-0.2-0.1-0.2-0.1c-0.5-0.2-1.2-1.3-1.2-1.8
		c0-3,6.3-9.2,11.4-9.2c1,0,2.4,0.4,2.4,1.7c0,0.5-0.2,0.9-0.5,1.3c-0.1,0-0.1,0-0.1,0c0.1-0.2,0.3-0.6,0.3-1c0-0.8-0.5-1.2-1.4-1.2
		c-1.6,0.1-3.6,1.2-5.4,2.8c-2.6,2.2-4.7,5.7-4.4,5.8c0.1,0,0.1,0,0.2,0c0.9-0.3,4.8-3.1,6.2-4.3c0.5-0.4,2.3-2.2,3-2.6
		c0.6-0.3,1.5,1.2,1.4,1.6c-0.1-0.3-2.6,2.7-3.4,4.5c-0.2,0.4-0.3,0.7-0.3,0.9c1.7-0.5,5.7-4.3,7.4-5.9c0.1-0.1,0.3,0.1,0.2,0.2
		c-2.4,2.6-6.9,7.2-8.6,7.2c-0.1,0-0.3-0.1-0.5-0.2c-0.4-0.2-0.9-0.8-0.9-1.3c0-0.3,0.1-0.6,0.2-1C103.8,36.2,104.6,34.9,105.1,34.2
		z"/>
	<linearGradient id="XMLID_38_" gradientUnits="userSpaceOnUse" x1="109.6163" y1="29.4555" x2="124.9789" y2="29.4555">
		<stop  offset="0" style="stop-color:#FFFFFF"/>
		<stop  offset="1" style="stop-color:#000000"/>
	</linearGradient>
	<path id="XMLID_25_" class="st7" d="M119.3,22.3c0.8-1.1,1.6-2,2.3-2.5c0.4-0.3,0.8-0.6,1-0.6c1.5-0.1,2.6,1.5,2.1,1.2
		c-1-0.4-2.8,2.2-4,3.6c-1.2,1.5-2.3,3.1-3.7,5.2c-2.4,3.6-4.5,7.1-5.1,8.9c1.2,0.1,5.8-4.4,7.4-5.8c0.2-0.1,0.3,0.1,0.2,0.2
		c-1.4,1.5-6.2,6.6-7.8,7.2c-0.4,0.1-0.6,0-0.9-0.1c-0.2-0.1-0.8-0.7-1-1.1c0-0.1-0.1-0.1-0.1-0.4c0-0.8,1.3-3.5,4.6-8.8
		C116.1,26.6,117.9,24.2,119.3,22.3z"/>
	<linearGradient id="XMLID_39_" gradientUnits="userSpaceOnUse" x1="17.7711" y1="65.0008" x2="52.1496" y2="65.0008">
		<stop  offset="0" style="stop-color:#FFFFFF"/>
		<stop  offset="1" style="stop-color:#000000"/>
	</linearGradient>
	<path id="XMLID_27_" class="st8" d="M37,74.5c-1.5,0-3,0.1-4.5,0.2c-9,1.1-13.8,4.7-12.6,5.7c-0.6,0-2-1-2.1-2.2
		c-0.1-1.5,3.1-2.9,6.7-3.8c2.4-1.7,5.3-5,7.6-7.8c-1.1,0.1-2.2,0.2-3.3,0.2c-4.7,0-8.6-1.9-8.9-4.4c-0.1-0.4,0.3-1,0.7-1.5
		c0.8-0.9,2.1-1,2.3-0.9c-0.5,0.2-1.1,0.6-1.1,1.1c-0.1,1.9,3.2,4.5,8.3,4.5c0.5,0,1,0,1.6-0.1c0.5-0.1,1-0.1,1.5-0.2
		c5.4-6.8,11.2-15.6,16.2-15.8c1.6,0,2.8,0.9,2.6,2.7c-0.5,4.7-7.9,11.2-16.5,13.6c-2.6,3.1-5.7,6.3-7.9,7.8
		c1.4-0.2,2.8-0.4,3.9-0.5c0.6,0,1.3-0.1,2-0.1c6,0,13.7,1.3,16.4,3.4C46.8,75.4,42,74.5,37,74.5z M36.7,64.5
		c8.9-3,14-10.8,13.8-13.1c-0.1-0.7-0.5-1.2-1.2-1C47,51.1,42,58.1,36.7,64.5z"/>
	<linearGradient id="XMLID_40_" gradientUnits="userSpaceOnUse" x1="43.0187" y1="67.2932" x2="59.8412" y2="67.2932">
		<stop  offset="0" style="stop-color:#FFFFFF"/>
		<stop  offset="1" style="stop-color:#000000"/>
	</linearGradient>
	<path id="XMLID_30_" class="st9" d="M54.5,62.2c-5,0-10.8,9.3-9.2,10c1.5,0.6,5.5-3.8,7.3-6.6c-0.1-0.2-0.4-1.1-0.3-1.4
		c0.1-0.3,0.9-1.1,1.3-1.1c0.3,0,0.6,0.2,0.6,0.3c0.5,0.9,1.2,1.5,2.3,1.4c1.8-0.2,2.9-1.2,3.2-1.2c-0.1,0.4-1.2,1.3-2.6,1.7
		c-0.6,0.2-1.2,0.2-1.6,0.2c-0.4,0-0.7-0.1-0.8-0.1c-0.7,3.7-6.5,7.6-9.4,7.5c-1.3-0.1-2.1-1.1-2.1-2.2c0-4.5,6-9,10.4-9
		c1,0,1.5,0.3,1.7,0.5c0.1,0.1,0.1,0.1-0.1,0.1C54.9,62.2,54.7,62.2,54.5,62.2z"/>
	<linearGradient id="XMLID_41_" gradientUnits="userSpaceOnUse" x1="53.4464" y1="67.2497" x2="70.6605" y2="67.2497">
		<stop  offset="0" style="stop-color:#FFFFFF"/>
		<stop  offset="1" style="stop-color:#000000"/>
	</linearGradient>
	<path id="XMLID_32_" class="st10" d="M62.4,67.3c-0.8,0.8-6.2,5.5-7.4,5.5c-0.1,0-0.2-0.1-0.2-0.1c-0.5-0.2-1.2-1.3-1.2-1.8
		c0-3,6.3-9.2,11.4-9.2c1,0,2.4,0.4,2.4,1.7c0,0.5-0.2,0.9-0.5,1.3c-0.1,0-0.1,0-0.1,0c0.1-0.2,0.3-0.6,0.3-1c0-0.8-0.5-1.2-1.4-1.2
		c-1.6,0.1-3.6,1.2-5.4,2.8c-2.6,2.2-4.7,5.7-4.4,5.8c0.1,0,0.1,0,0.2,0c0.9-0.3,4.8-3.1,6.2-4.3c0.5-0.4,2.3-2.2,3-2.6
		c0.6-0.3,1.5,1.2,1.4,1.6c-0.1-0.3-2.6,2.7-3.4,4.5c-0.2,0.4-0.3,0.7-0.3,0.9c1.7-0.5,5.7-4.3,7.4-5.9c0.1-0.1,0.3,0.1,0.2,0.2
		c-2.4,2.6-6.9,7.2-8.6,7.2c-0.1,0-0.3-0.1-0.5-0.2c-0.4-0.2-0.9-0.8-0.9-1.3c0-0.3,0.1-0.6,0.2-1C61.1,69.3,61.9,68,62.4,67.3z"/>
	<linearGradient id="XMLID_42_" gradientUnits="userSpaceOnUse" x1="66.6504" y1="67.4423" x2="83.7925" y2="67.4423">
		<stop  offset="0" style="stop-color:#FFFFFF"/>
		<stop  offset="1" style="stop-color:#000000"/>
	</linearGradient>
	<path id="XMLID_34_" class="st11" d="M76,71.3c1.7-0.5,5.7-4.2,7.4-5.9c0.2-0.1,0.3,0.1,0.2,0.2c-2.4,2.6-6.9,7.2-8.6,7.2
		c-0.3,0-0.6-0.2-0.9-0.6c-0.3-0.4-0.5-0.8-0.5-1.1c0-1.6,3.2-6.2,4.6-7.5c-2.3,1-6.3,4.4-8.4,6.6c-0.4,0.4-0.7,0.8-1,1.2
		c-0.7,0.9-0.9,1.6-0.5,1.8c-0.8,0.2-1.5-0.7-1.7-1.5c-0.1-0.2,0.1-0.9,0.8-2.2c0.7-1.3,1.7-2.9,2.6-4.2c1-1.4,2.2-2.9,2.9-3.4
		c0.1-0.1,0.3-0.1,0.4-0.1c0.7,0,1.7,1.1,1.7,1.8c0,0.1-0.1,0-0.3-0.1c-0.4,0-1.4,1.1-2.2,2.2c-1.3,1.7-2.7,3.8-3.1,4.5
		c0.3-0.4,0.8-1,1.4-1.5c3.1-3,7.9-6.8,8.9-6.8c0.7,0,1.5,1.5,1.2,1.8C80.3,64.2,76,70,76,71.3z"/>
</g>
<g id="XMLID_4_">
	<path id="XMLID_79_" d="M126.7,94.4c-0.3-0.1-0.5-0.1-0.7-0.3c-0.2-0.1-0.4-0.4-0.4-0.5c0.1-0.3,0.3-0.5,0.6-0.6
		c0.2-0.1,0.6-0.1,0.9-0.1c0-0.4-0.1-0.6-0.5-0.6c-0.6,0-0.9-0.4-0.7-1c0.1-0.4,0.2-0.8,0.3-1.2c0.1-0.3,0.4-0.5,0.7-0.8
		c0.5-0.4,0.9-0.7,1.6-0.4c0.2,0.1,0.4,0,0.6,0c0,0,0-0.1,0-0.1c-0.2-0.1-0.4-0.2-0.7-0.4c-0.3-0.2-0.5-0.3-0.4-0.7
		c0.2-0.3,0.4-0.6,0.8-0.5c0.3,0,0.5,0.2,0.8,0.2c0.2,0,0.4,0.1,0.6,0.1c0,0,0-0.1,0-0.1c-0.1-0.1-0.1-0.2-0.2-0.2
		c-0.4-0.3-0.4-0.7,0-0.9c0.2-0.1,0.5-0.2,0.8-0.3c0.5-0.1,0.9-0.2,1.4-0.3c0.4-0.1,0.9-0.2,1.4-0.3c1.3-0.3,2.6-0.6,3.9-0.9
		c0.4-0.1,0.7-0.2,1.1-0.2c1.1-0.3,1.9-1,2.8-1.7c1-0.9,2.2-1.2,3.5-0.9c0.7,0.1,1.1,0.8,1.4,1.4c0.1,0.2,0.2,0.5,0.3,0.6
		c0.6,0.5,0.9,1.3,1.3,1.9c0.6,1,1.4,1.7,2.4,2.2c1.1,0.6,2.2,1.1,3.4,1.6c2.1,0.9,4.3,1.8,6.4,2.8c0.5,0.2,1,0.4,1.5,0.7
		c0.5,0.2,0.8,0,0.8-0.6c0-1.1,0-2.3,0-3.4c0-0.9,0.2-1.8,0.6-2.7c0.4-0.7,0.6-1.4,1-2.1c0.3-0.5,0.8-0.8,1.3-0.7
		c0.3,0,0.4-0.1,0.4-0.4c0-0.5,0-1,0-1.5c-0.1-1.2,0.3-2.2,0.8-3.2c0.3-0.7,0.6-1.4,0.7-2.1c0.1-0.8,0.5-1.5,0.8-2.2
		c0.3-0.7,0.7-1.4,1-2.1c0-0.1,0.1-0.2,0.1-0.3c-0.1-0.8,0.4-1.4,1-1.9c0.3-0.3,0.5-0.6,0.4-1.1c-0.1-0.9,0.8-1.8,1.6-2.2
		c0.5-0.2,0.9-0.8,1.4-1.2c0,0-0.1-0.3-0.2-0.5c-0.3-0.4-0.7-0.8-1-1.3c-0.1-0.1-0.1-0.4,0-0.6c0.2-0.4,0-0.6-0.2-0.8
		c-0.1-0.2-0.3-0.3-0.4-0.5c-0.3-0.4-0.5-0.8-0.3-1.4c0.2-0.5,0.1-1-0.3-1.5c-0.7-0.8-1.6-1.3-2.5-1.8c-1-0.5-1.7-1.2-2.1-2.3
		c-0.2-0.5-0.7-1-1.2-1.4c-1.4-1.1-3-2.1-4.4-3.2c-0.5-0.3-0.8-0.7-1.3-1.1c-0.5-0.4-1-0.7-1.5-1c-0.3-0.1-0.7-0.1-1-0.1
		c-0.8,0.1-1.6,0.3-2.4,0.5c-0.7,0.1-1.5,0.1-2.2,0.2c-0.5,0.1-0.9,0.2-1.4,0.2c-0.4,0.1-0.7,0.1-1.1,0.2c-1.5,0-2.9,0.4-4.2,1
		c-1.1,0.4-2.1,0.9-3.3,1c-0.8,0.1-1.3,0.6-1.8,1.1c-0.7,0.6-1.5,0.8-2.3,0.9c-1.2,0.2-2.4,0.3-3.6,0.4c-0.7,0.1-1.3,0.3-2,0.4
		c-1.2,0.2-2.3,0.4-3.5,0.5c-1.2,0.2-2.4,0.2-3.6,0.4c-0.8,0.1-1.6,0.1-2.5,0.2c-0.7,0.1-1.4,0.2-2.1,0.3c-0.3,0-0.6,0.1-0.8,0.1
		c-1.3,0-2.5,0.2-3.6,1c-0.5,0.3-1.1,0.4-1.7,0.6c-1.5,0.5-3,0.7-4.6,0.7c-0.8,0-1.7,0.5-2.5,0.8c-0.4,0.2-0.8,0.5-1.3,0.6
		c-0.4,0.1-0.8,0.1-1.2,0c-0.4-0.1-0.6-0.1-0.8,0.2c-0.7,0.8-1.6,0.7-2.5,0.7c-0.1,0-0.3-0.2-0.3-0.3c0-0.2,0-0.5,0.2-0.6
		c0.4-0.5,0.9-0.9,1.3-1.3c0.7-0.7,1.3-1.3,2-2c0.4-0.4,0.9-0.8,1.3-1.3c0.1-0.1,0.2-0.2,0.3-0.2c0.8-0.6,0.8-0.7,0-1.4
		c-0.4-0.3-0.7-0.7-0.6-1.3c0-0.3,0.2-0.4,0.4-0.3c1.6,0.7,3.2,0.2,4.8,0.4c0.4,0,0.8,0.2,1.3,0.2c1.4,0.1,2.7-0.2,4-0.7
		c0.5-0.2,1.1-0.2,1.7-0.3c0.5-0.1,1-0.1,1.4-0.3c0.9-0.3,1.8-0.6,2.7-0.9c1.3-0.4,2.6-0.8,3.8-1.3c1.3-0.5,2.5-1.1,3.7-1.7
		c1-0.4,1.9-0.9,2.9-1.3c0.5-0.2,1.1-0.3,1.7-0.3c1.4-0.1,2.8-0.1,4.1-0.2c0.7-0.1,1.4-0.3,2.1-0.5c1-0.3,2-0.8,3-1.2
		c0.6-0.2,0.6-0.4,0.5-1c-0.1-0.7-0.2-1.4-0.1-2c0.1-0.8,0.7-1.1,1.6-1.2c0.4,0,0.7,0,1.1-0.1c0.7-0.1,1.2-0.5,1.8-1
		c0.8-0.7,1.7-1.4,2.5-2.1c0.2-0.2,0.4-0.3,0.6-0.5c0.7-0.8,1.6-1.4,2.5-2c0.1-0.1,0.2-0.2,0.4-0.3c-0.8-0.3-1.4-0.5-2.1-0.7
		c-0.4-0.1-0.9-0.3-1.3-0.4c-0.3-0.1-0.4-0.4-0.7-0.5c-0.9-0.4-1.1-1.4-1.7-2c-0.1,0-0.1-0.2-0.1-0.2c0.1-0.7-0.4-1.3-0.5-1.9
		c-0.1-1.2-0.3-2.4,0.2-3.7c0.3-0.7,0.6-1.4,0.8-2.1c0.3-0.8,0.9-1.4,1.2-2.2c0.1-0.2,0.2-0.3,0.2-0.5c0.1-0.6,0.3-1,0.8-1.3
		c0.3-0.2,0.6-0.3,0.9-0.3c0.4-0.1,0.9-0.3,1.2-0.6c0.9-0.8,1.9-1.2,3-1.5c0.6-0.2,1.2-0.5,1.9-0.4c0.3,0,0.6,0.1,0.7,0.3
		c0.6,0.7,1.1,1.4,1.6,2.2c0.4,0.7,1.1,0.9,1.9,1c0.5,0.1,0.8,0.2,0.9,0.7c0.1,0.5,0.7,0.6,1.3,0.4c0.3-0.1,0.6-0.1,0.9-0.1
		c0.7,0,1.1,0.4,1.1,1.1c0,0.6-0.1,1.2,0.5,1.6c0.1,0.1,0.1,0.2,0.1,0.3c0,0.8,0.6,1.2,1.3,1.5c0.7,0.3,0.8,1,0.9,1.7
		c0.1,0.8,0,1.6-0.7,2.2c-0.3,0.3-0.5,0.6-0.7,1c-0.3,0.4,0,1.2,0.4,1.4c0.1,0.1,0.3,0.1,0.4,0c0.6-0.3,1.3-0.5,2-0.6
		c0.5,0,0.9-0.5,1.3-0.8c0.5-0.4,0.3-0.9,0.2-1.4c-0.3-1.1-0.2-2.3,0.4-3.4c0.4-0.7,0.8-1.4,1.1-2.2c0.3-0.6,0.4-1.3,0.5-1.9
		c0.1-0.6,0.1-1.3,0.2-1.9c0-0.4,0.1-0.8,0.2-1.2c0.1-1.1-0.2-2.2-0.5-3.2c-0.1-0.2-0.1-0.5-0.1-0.7c-0.1-0.9-0.3-1.9-0.5-2.8
		c-0.1-0.3-0.4-0.5-0.5-0.8c-0.1-0.2-0.2-0.4-0.1-0.6c0.1-0.1,0.4-0.2,0.6-0.2c0.6,0.1,1.6,1.1,1.7,1.8c0.1,0.3,0.2,0.7,0.2,1
		c0.5-1,1-2.1,1.6-3.1c0.4-0.7,0.8-1,1.1-0.7c0.3,0.2,0.2,0.9,0,1.4c-0.3,0.7-0.5,1.4-0.8,2.1c-0.1,0.2,0,0.4-0.1,0.6
		c0.7-0.8,1.4-1.6,2.1-2.3c0.1-0.1,0.2-0.3,0.4-0.3c0.2,0,0.5-0.1,0.6,0.1c0.1,0.1,0.1,0.4,0,0.6c-0.1,0.3-0.4,0.7-0.6,1
		c-0.4,0.6-0.8,1.2-1.2,1.8c-0.1,0.2-0.1,0.6-0.2,0.9c0,0,0.1,0,0.1,0c0.7-0.6,1.3-1.3,2-1.9c0.1-0.1,0.3-0.3,0.4-0.4
		c0.2-0.1,0.5-0.1,0.7,0c0.1,0.1,0.2,0.5,0.1,0.6c-0.4,0.8-0.8,1.5-1.6,2.1c-0.2,0.1-0.3,0.4-0.6,0.7c0.2,0,0.4,0.1,0.5,0.1
		c0.6-0.1,1.3-0.3,1.8-0.8c0.2-0.2,0.6-0.4,0.9-0.6c0.1-0.1,0.5,0,0.5,0.2c0.1,0.2,0,0.5-0.1,0.6c-0.7,0.7-1.3,1.4-2.2,1.8
		c-0.5,0.3-0.8,0.9-1.2,1.3c-0.3,0.3-0.5,0.7-0.7,1c-0.5,0.6-0.8,1.2-0.8,2c0,0.9,0.2,1.8,0.4,2.7c0.2,0.8,0.3,1.5,0.4,2.3
		c0.1,0.8,0.2,1.7,0.2,2.6c0,0.3-0.2,0.7-0.4,1c-0.4,0.5-0.7,1.1-0.8,1.7c-0.2,0.7-0.5,1.3-0.8,2c-0.2,0.3-0.2,0.5,0,0.8
		c0.2,0.2,0.3,0.7,0.2,0.9c-0.4,0.9,0.1,1.6,0.5,2.4c1.1,1.9,2.2,3.7,3.3,5.5c0.9,1.5,1.9,3,2.7,4.5c0.8,1.4,1.4,2.8,2.1,4.2
		c0.7,1.5,1.2,3,1.8,4.6c0.3,0.9,0.5,1.8,0.7,2.7c0.1,0.5,0.3,1,0.5,1.5c0.3,0.8,0.3,1.6,0.4,2.5c0,0.7,0.2,1.4,0.3,2.1
		c0.1,0.8,0.3,1.6,0.4,2.5c0,0.1,0,0.3-0.1,0.4c-0.6,1.2-0.4,2.3,0.3,3.4c0.3,0.4,0.6,0.9,0.9,1.3c0.3,0.5,0.2,1.3-0.4,1.6
		c-0.5,0.3-0.4,0.5-0.3,1c0.3,0.8,0.5,1.6,0.6,2.4c0.1,1.2,0,2.3,0,3.5c0,0.8-0.3,1.4-0.8,2c-0.4,0.5-0.9,1-1.2,1.5
		c-0.2,0.4-0.3,0.8-0.4,1.2c-0.3,0.8-0.6,1.6-0.9,2.4c-0.3,0.9-0.4,1.8-0.6,2.7c-0.4,1.7-0.8,3.4-1.3,5.1c-0.7,2.3-1.7,4.5-2.9,6.6
		c-0.8,1.4-1.6,2.8-2.4,4.2c-0.2,0.4-0.3,0.9-0.6,1.2c-0.7,1.1-0.9,2.5-1.9,3.4c-0.5,0.5-0.9,1.2-1.7,1.5c-0.5,0.2-0.9,0.6-1.4,0.9
		c-1,0.4-2,0.4-3,0c-1.3-0.5-2.5-1.1-3.7-1.7c-0.3-0.2-0.6-0.5-0.9-0.8c-0.5-0.4-1-0.8-1.7-0.9c-0.4,0-0.9-0.2-1.2-0.4
		c-1.1-0.6-2.3-1.1-3.3-2c-0.7-0.6-1.6-1.1-2.4-1.6c-1.3-0.8-2.7-1.5-4-2.2c-1.5-0.9-2.9-1.8-4.4-2.7c-1.4-0.8-2.8-1.7-4.4-2.2
		c-1-0.3-2.1-0.6-3.1-0.9c-0.8-0.2-1.7-0.3-2.5-0.4c-1.5-0.3-2.9-0.3-4.4-0.1c-2,0.2-3.9,0.1-5.9,0.2c-0.2,0-0.4,0.1-0.7,0.2
		c-0.7,0.1-1.5,0.1-2.3,0.2c-1,0.1-2,0.3-3,0.5c-0.4,0.1-0.7,0.2-1-0.1c-0.2-0.2-0.2-1,0.1-1.3c0.7-0.8,1.5-1.2,2.5-1.3
		C126.4,94.6,126.5,94.5,126.7,94.4z"/>
</g>
</svg>
