
<svg version="1.1" id="Layer_1" xmlns="http://www.w3.org/2000/svg" xmlns:xlink="http://www.w3.org/1999/xlink" x="0px" y="0px" viewBox="-225 345 157 153" style="" xml:space="preserve">
<script xlink:href="http://cdnjs.cloudflare.com/ajax/libs/jquery/2.0.0/jquery.min.js"></script>
<style type="text/css">
	.st0{fill:none;stroke:url(#skyGradient);stroke-width:7;stroke-miterlimit:10;}
	.st1{fill:url(#skyGradient);stroke:url(#skyGradient);stroke-width:5;stroke-miterlimit:10;}
	.st2{fill:#FFFFFF;stroke:#FFFFFF;stroke-width:4.058;stroke-miterlimit:10;}
	.st3{fill:#FFFFFF;stroke:#FFFFFF;stroke-width:2;stroke-miterlimit:10;}
	svg:hover .st{
		stroke:url(#skyGradient);
	}
	<!-- svg:hover .st0{
		fill:url(#skyGradient);
	} --> 
</style>

<defs>
    <linearGradient id="skyGradient" x1="100%" y1="100%">
      <stop offset="0%" stop-color="lightblue" stop-opacity=".5">
        <animate attributeName="stop-color" values="lightblue;blue;red;red;black;red;red;purple;lightblue;lightblue;blue;red;red;black;red;red;purple;lightblue;lightblue;blue;red;red;black;red;red;purple;lightblue;lightblue;blue;red;red;black;red;red;purple;lightblue;lightblue;blue;red;red;black;red;red;purple;lightblue" dur="10s" repeatCount="indefinite" />
      </stop>
      <stop offset="100%" stop-color="lightblue" stop-opacity=".5">
        <animate attributeName="stop-color" values="lightblue;orange;purple;purple;black;purple;purple;blue;lightblue;lightblue;orange;purple;purple;black;purple;purple;blue;lightblue;lightblue;orange;purple;purple;black;purple;purple;blue;lightblue" dur="6s" repeatCount="indefinite" />
        <animate attributeName="offset" values=".95;.80;.60;.40;.20;0;.20;.40;.60;.80;.95" dur="6s" repeatCount="indefinite" />
      </stop>
    </linearGradient>
</defs>

<g>
	<path class="st st0 WgFuVEyT_0" d="M-219.5,421A72.5,72.5 0,1,1 -74.5,421A72.5,72.5 0,1,1 -219.5,421"></path>
	<g>
		<g id="XMLID_18_">
			<path id="XMLID_20_" class="st1 WgFuVEyT_1" d="M-146.9,385.1l-20.5,0.4c0,0-4,0.1-7.3,2.8c-3.3,2.8-8.7,8.7-8.7,8.7s-1.2,1.3-1.6,0.4
				c-0.4-0.9-1.1-3.1-2-3.3s-10.7-1.2-10.7,3.8c0,5.1,4.5,5.8,5.7,6.4l-5.3,5.3c0,0-5.2,4.9-5.2,18.5c0,13.6,0.6,12.1,3.5,18.2
				l0.2,5.5c0,0,0.2,5.5,9.3,5.1c0,0,10.6,1.4,10.6-7.2l32.1-0.4"></path>
			<path id="XMLID_19_" class="st1 WgFuVEyT_2" d="M-147.5,384.9l20.9,0.4c0,0,4,0.1,7.3,2.8c3.3,2.7,8.7,8.7,8.7,8.7s1.2,1.3,1.6,0.4
				c0.4-0.9,1.1-3.1,2-3.3c1-0.2,10.7-1.2,10.7,3.8c0,5.1-4.5,5.8-5.7,6.4l5.3,5.3c0,0,5.2,4.9,5.2,18.5c0,13.6-0.6,12.1-3.5,18.2
				l-0.2,5.5c0,0-0.2,5.5-9.3,5.1c0,0-10.6,1.4-10.6-7.2l-32.2-0.3"></path>
		</g>
		<path id="XMLID_17_" class="st st2 WgFuVEyT_3" d="M-179.7,402.5h65.1c0.4,0,0.7-0.5,0.4-0.9l-7.8-8.2c0,0-2.4-1.9-5.2-1.9c-2.7,0-38,0-38,0
			s-3.6-0.4-6.9,2.2c-2.5,2-6.4,6.1-8,7.9C-180.4,402-180.1,402.5-179.7,402.5z"></path>
		<path id="XMLID_13_" class="st st3 WgFuVEyT_4" d="M-172.8,423.1c-0.2,0-0.3,0.2-0.3,0.3c0.1,1.4,0.5,7.1,4.9,9.5c0.7,0.4,1.5,0.6,2.3,0.6h37.7
			c0.9,0,1.7-0.2,2.5-0.6c1.9-1,4.8-3.6,4.9-9.7c0-0.2-0.1-0.3-0.3-0.3L-172.8,423.1z"></path>
		<path id="XMLID_12_" class="st st3 WgFuVEyT_5" d="M-176.9,444.3l-14.8,0.2c0,0-7.6-3-4.1-8.8c3.4-5.3,16.7,3.4,19.3,7.8
			C-176.3,443.9-176.5,444.3-176.9,444.3z"></path>
		<path id="XMLID_10_" class="st st3 WgFuVEyT_6" d="M-116.9,444.3l14.8,0.2c0,0,7.6-3,4.1-8.8c-3.3-5.3-16.7,3.4-19.3,7.8
			C-117.5,443.9-117.3,444.3-116.9,444.3z"></path>
		<path id="XMLID_9_" class="st st3 WgFuVEyT_7" d="M-182.7,426.7c0,0-9.9,1.4-12.6,0.3c-2.8-1.1-7.1-7.2-2.5-11c4.6-3.8,10.6,1,10.6,1l7.8,5.7
			C-179.4,422.7-177.2,425.8-182.7,426.7z"></path>
		<path id="XMLID_8_" class="st st3 WgFuVEyT_8" d="M-111.3,426.7c0,0,9.9,1.4,12.6,0.3c2.8-1.1,7.1-7.2,2.5-11c-4.6-3.8-10.6,1-10.6,1l-7.8,5.7
			C-114.7,422.7-116.9,425.8-111.3,426.7z"></path>
	</g>
</g>
<style>.WgFuVEyT_0{stroke-dasharray:456 458;stroke-dashoffset:457;animation:WgFuVEyT_draw 700ms linear 0ms forwards;}.WgFuVEyT_1{stroke-dasharray:179 181;stroke-dashoffset:180;animation:WgFuVEyT_draw 700ms linear 125ms forwards;}.WgFuVEyT_2{stroke-dasharray:180 182;stroke-dashoffset:181;animation:WgFuVEyT_draw 700ms linear 250ms forwards;}.WgFuVEyT_3{stroke-dasharray:142 144;stroke-dashoffset:143;animation:WgFuVEyT_draw 700ms linear 375ms forwards;}.WgFuVEyT_4{stroke-dasharray:118 120;stroke-dashoffset:119;animation:WgFuVEyT_draw 700ms linear 500ms forwards;}.WgFuVEyT_5{stroke-dasharray:51 53;stroke-dashoffset:52;animation:WgFuVEyT_draw 700ms linear 625ms forwards;}.WgFuVEyT_6{stroke-dasharray:51 53;stroke-dashoffset:52;animation:WgFuVEyT_draw 700ms linear 750ms forwards;}.WgFuVEyT_7{stroke-dasharray:54 56;stroke-dashoffset:55;animation:WgFuVEyT_draw 700ms linear 875ms forwards;}.WgFuVEyT_8{stroke-dasharray:54 56;stroke-dashoffset:55;animation:WgFuVEyT_draw 700ms linear 500ms forwards;}@keyframes WgFuVEyT_draw{100%{stroke-dashoffset:0;}}@keyframes WgFuVEyT_fade{0%{stroke-opacity:1;}94.44444444444444%{stroke-opacity:1;}100%{stroke-opacity:0;}}</style>
<script type="text/ecmascript">
<!-- <![CDATA[
	$('svg').hover(
	function(){
		location.reload();
	},
	function(e){
		e.preventDefault();
	});
]]> -->
</script>
</svg>
