<!--?xml version="1.0" encoding="utf-8"?-->
<!-- Generator: Adobe Illustrator 19.0.0, SVG Export Plug-In . SVG Version: 6.00 Build 0)  -->
<svg version="1.1" id="Layer_1" xmlns="http://www.w3.org/2000/svg" xmlns:xlink="http://www.w3.org/1999/xlink" x="0px" y="0px" viewBox="-222 345.9 150 150" style="" xml:space="preserve">
<script xlink:href="http://cdnjs.cloudflare.com/ajax/libs/jquery/2.0.0/jquery.min.js"></script>
<style type="text/css">
	.st0{fill:url(#skyGradient);}
	.st1{fill:none;stroke:#FFFFFF;stroke-width:3.5025;stroke-linecap:round;stroke-linejoin:round;stroke-miterlimit:10;}
	.st2{fill:#FFFFFF;}
	.st3{fill:none;stroke:#FFFFFF;stroke-width:5.8374;stroke-miterlimit:10;}
	.st4{fill:#FFFFFF;stroke:url(#skyGradient);stroke-width:4.67;stroke-miterlimit:10;}
	.st5{fill:none;stroke:url(#skyGradient);stroke-width:3.5025;stroke-linecap:round;stroke-linejoin:round;stroke-miterlimit:10;}
	.st6{fill:none;stroke:url(#skyGradient);stroke-width:2.9187;stroke-linecap:round;stroke-linejoin:round;stroke-miterlimit:10;}
	.st7{fill:none;stroke:url(#skyGradient);stroke-width:1.1675;stroke-linecap:round;stroke-linejoin:round;stroke-miterlimit:10;}
	.st8{font-family:'MyriadPro-Bold';}
	.st9{font-size:5.719px;}
	.st10{fill:none;stroke:url(#skyGradient);stroke-width:7;stroke-miterlimit:10;}
	svg:hover .st{
		stroke:url(#skyGradient);
	}
	svg:hover .st0{
		fill:url(#skyGradient);
	} 
</style>

<defs>
    <linearGradient id="skyGradient" x1="100%" y1="100%">
      <stop offset="0%" stop-color="lightblue" stop-opacity=".5">
        <animate attributeName="stop-color" values="lightblue;blue;red;red;black;red;red;purple;lightblue;lightblue;blue;red;red;black;red;red;purple;lightblue;lightblue;blue;red;red;black;red;red;purple;lightblue;lightblue;blue;red;red;black;red;red;purple;lightblue;lightblue;blue;red;red;black;red;red;purple;lightblue" dur="10s" repeatCount="indefinite" />
      </stop>
      <stop offset="100%" stop-color="lightblue" stop-opacity=".5">
        <animate attributeName="stop-color" values="lightblue;orange;purple;purple;black;purple;purple;blue;lightblue;lightblue;orange;purple;purple;black;purple;purple;blue;lightblue;lightblue;orange;purple;purple;black;purple;purple;blue;lightblue" dur="6s" repeatCount="indefinite" />
        <animate attributeName="offset" values=".95;.80;.60;.40;.20;0;.20;.40;.60;.80;.95" dur="6s" repeatCount="indefinite" />
      </stop>
    </linearGradient>
</defs>

<g id="XMLID_372">
	<path id="XMLID_386_" class="st st0 xxYcEILm_0" d="M-125.8,424.4l-62.4,20.7c-2.2,0.7-4.6-0.5-5.3-2.7l-12.7-38.2c-0.7-2.2,0.5-4.6,2.7-5.3
		l62.5-20.7c2.2-0.7,4.6,0.5,5.3,2.7l12.7,38.2C-122.4,421.3-123.6,423.7-125.8,424.4z"></path>
	<path id="XMLID_383_" class="st st1 xxYcEILm_1" d="M-189.5,424.7L-158.1,414.3"></path>
	<path id="XMLID_382_" class="st st2 xxYcEILm_2" d="M-181.4,415l-9.4,3.1c-1.2,0.4-2.6-0.3-3-1.5l-2.4-7.3c-0.4-1.2,0.3-2.6,1.5-3l9.4-3.1
		c1.2-0.4,2.6,0.3,3,1.5l2.4,7.3C-179.5,413.2-180.2,414.6-181.4,415z"></path>
	<path id="XMLID_381_" class="st3 xxYcEILm_3" d="M-98.8,458.7H-166c-3.3,0-6.1-2.7-6.1-6.1v-41.3c0-3.3,2.7-6.1,6.1-6.1h67.3
		c3.3,0,6.1,2.7,6.1,6.1v41.3C-92.7,455.9-95.4,458.7-98.8,458.7z"></path>
	<path id="XMLID_380_" class="st st4 xxYcEILm_4" d="M-99.3,456.4h-66.1c-2.2,0-4-1.8-4-4v-40.6c0-2.2,1.8-4,4-4h66.1c2.2,0,4,1.8,4,4v40.5
		C-95.3,454.5-97.1,456.4-99.3,456.4z"></path>
	<path id="XMLID_379_" class="st0 xxYcEILm_5" width="72.2" height="9.6" d="M-168.5 415.8 L-96.3 415.8 L-96.3 425.40000000000003 L-168.5 425.40000000000003 Z"></path>
	<path id="XMLID_378_" class="st st5 xxYcEILm_6" d="M-158.1,432.5L-125.101,432"></path>
	<path id="XMLID_377_" class="st st6 xxYcEILm_7" d="M-159.1,438.3L-126.101,438"></path>
	<path id="XMLID_376_" class="st st7 xxYcEILm_8" d="M-159.1,443L-126.101,442.500"></path>
	<text id="XMLID_375_" transform="matrix(1 0 0 1 -130.6042 451.6077)" class="st8 st9">Credit Card</text>
</g>

<path id="round" class="st st10 xxYcEILm_9" d="M-219.5,420.9A72.5,72.5 0,1,1 -74.5,420.9A72.5,72.5 0,1,1 -219.5,420.9"></path>
<style>.xxYcEILm_0{stroke-dasharray:239 241;stroke-dashoffset:240;animation:xxYcEILm_draw 700ms linear 0ms forwards;}.xxYcEILm_1{stroke-dasharray:34 36;stroke-dashoffset:35;animation:xxYcEILm_draw 700ms linear 111ms forwards;}.xxYcEILm_2{stroke-dasharray:50 52;stroke-dashoffset:51;animation:xxYcEILm_draw 700ms linear 222ms forwards;}.xxYcEILm_3{stroke-dasharray:256 258;stroke-dashoffset:257;animation:xxYcEILm_draw 700ms linear 333ms forwards;}.xxYcEILm_4{stroke-dasharray:239 241;stroke-dashoffset:240;animation:xxYcEILm_draw 700ms linear 444ms forwards;}.xxYcEILm_5{stroke-dasharray:164 166;stroke-dashoffset:165;animation:xxYcEILm_draw 700ms linear 555ms forwards;}.xxYcEILm_6{stroke-dasharray:34 36;stroke-dashoffset:35;animation:xxYcEILm_draw 700ms linear 666ms forwards;}.xxYcEILm_7{stroke-dasharray:34 36;stroke-dashoffset:35;animation:xxYcEILm_draw 700ms linear 777ms forwards;}.xxYcEILm_8{stroke-dasharray:34 36;stroke-dashoffset:35;animation:xxYcEILm_draw 700ms linear 888ms forwards;}.xxYcEILm_9{stroke-dasharray:456 458;stroke-dashoffset:457;animation:xxYcEILm_draw 700ms linear 500ms forwards;}@keyframes xxYcEILm_draw{100%{stroke-dashoffset:0;}}@keyframes xxYcEILm_fade{0%{stroke-opacity:1;}94.44444444444444%{stroke-opacity:1;}100%{stroke-opacity:0;}}</style>
<script type="text/ecmascript">
<!-- <![CDATA[
	$('svg').hover(
	function(){
		location.reload();
	},
	function(e){
		e.preventDefault();
	});
]]> -->
</script>
</svg>
