<!--?xml version="1.0" encoding="utf-8"?-->
<!-- Generator: Adobe Illustrator 19.0.0, SVG Export Plug-In . SVG Version: 6.00 Build 0)  -->
<svg version="1.1" id="Layer_1" xmlns="http://www.w3.org/2000/svg" xmlns:xlink="http://www.w3.org/1999/xlink" x="0px" y="0px" viewBox="-222 345.9 150 150" style="" xml:space="preserve">
<style type="text/css">
	.st0{fill:url(#skyGradient);}
	.st1{fill:none;stroke:url(#skyGradient);stroke-width:7;stroke-miterlimit:10;}
	svg:hover .st{
		stroke:url(#skyGradient);
	}
</style>

<defs>
    <linearGradient id="skyGradient" x1="100%" y1="100%">
      <stop offset="0%" stop-color="lightblue" stop-opacity=".5">
        <animate attributeName="stop-color" values="lightblue;blue;red;red;black;red;red;purple;lightblue;lightblue;blue;red;red;black;red;red;purple;lightblue;lightblue;blue;red;red;black;red;red;purple;lightblue;lightblue;blue;red;red;black;red;red;purple;lightblue;lightblue;blue;red;red;black;red;red;purple;lightblue" dur="10s" repeatCount="indefinite" />
      </stop>
      <stop offset="100%" stop-color="lightblue" stop-opacity=".5">
        <animate attributeName="stop-color" values="lightblue;orange;purple;purple;black;purple;purple;blue;lightblue;lightblue;orange;purple;purple;black;purple;purple;blue;lightblue;lightblue;orange;purple;purple;black;purple;purple;blue;lightblue" dur="6s" repeatCount="indefinite" />
        <animate attributeName="offset" values=".95;.80;.60;.40;.20;0;.20;.40;.60;.80;.95" dur="6s" repeatCount="indefinite" />
      </stop>
    </linearGradient>
</defs>

<g id="XMLID_1_">
	<path id="XMLID_2_" class="st st0 uJCpiKZQ_0" d="M-176.1,407.3c0,0.3-0.6,0.6-0.9,0.6c-0.1,0-0.2,0-0.3-0.2c-1.1-2.3-2.2-4.5-3.4-6.9
		c-0.3-0.6-0.6-0.9-1.5-1c-3-0.6-9.4-1.2-10.6-1.2c-0.6,0-0.8,0.2-0.8,0.8c-0.2,4-0.6,17-0.6,19.2c3.6,0.1,12.7,0.4,15.3,0.4
		c0.1,0,0.1,0.1,0.1,0.1c0,0.4-0.1,1.2-0.6,1.2c-3,0.3-10.2,0.7-14.3,1c-0.5,0-0.6,0.2-0.6,0.6c-0.1,2.4-0.3,15.4-0.3,17
		c0,0.8,0.4,0.9,0.9,1l4.9,0.7c0.2,0,0.4,0.5,0.4,0.9c0,0.1-0.1,0.2-0.2,0.2c-2.2-0.1-6.2-0.1-10.2-0.1c-3.5,0-6.9,0.1-9.3,0.1
		c-0.2,0-0.2-0.1-0.2-0.2c0-0.4,0.2-0.9,0.4-0.9l3-0.6c0.5-0.1,0.6-0.3,0.7-1c0.1-2.5-0.2-16.8-0.2-19.8c0-2.7-0.2-17-0.4-19.4
		c0-0.6-0.2-0.9-0.6-1l-3.1-0.6c-0.2-0.1-0.3-0.6-0.3-0.9c0-0.1,0-0.2,0.2-0.2c2.1,0.1,3.6,0.1,4.9,0.1c1.4,0,2.5,0,3.6,0
		c15,0,21.7-0.3,22.8-0.3c0.3,0,0.5,0.1,0.5,0.5L-176.1,407.3z"></path>
	<path id="XMLID_4_" class="st st0 uJCpiKZQ_1" d="M-172.6,399.1c-0.2,0-0.4-0.5-0.4-0.9c0-0.1,0-0.3,0.2-0.3c3.3-0.4,11.6-1,17.9-1
		c15.8,0,25,6.7,25,20.3c-0.1,15.7-11.3,24.8-26.2,24.8c-2.2,0-6.9-0.1-8.5-0.1c-2.8,0-5.8,0.1-7.6,0.1c-0.2,0-0.2-0.1-0.2-0.2
		c0-0.4,0.1-0.9,0.4-0.9l3.2-0.6c0.5-0.1,0.9-0.3,0.9-1.1c0.1-2.8-0.1-16.7-0.1-19.8c0-3.2-0.2-16.7-0.3-18.9c0-0.7-0.1-1-0.7-1.1
		L-172.6,399.1z M-155.7,440.7c6.3,0,14.5-5.1,14.5-23.1c0-11.5-5-19.2-14.3-19.2c-1.3,0-1.6,0.4-1.7,1.2
		c-0.5,4.9-1.2,37.6-1.1,39.8C-158.2,440.2-157.3,440.7-155.7,440.7L-155.7,440.7z"></path>
	<path id="XMLID_7_" class="st st0 uJCpiKZQ_2" d="M-89.6,408.9c0,5.6-4.8,9.4-8.7,11.3c3.3,4.7,7.7,12.9,10.6,18.8c0.3,0.6,0.6,0.9,1.1,1l2.9,0.8
		c0.4,0.1,0.5,0.6,0.5,0.9c0,0.1,0,0.2-0.2,0.2c-1.9-0.1-4-0.1-8.1-0.1c-2.7,0-5.7,0.1-8.9,0.1c-0.2,0-0.2-0.1-0.2-0.2
		c0-0.4,0.1-0.8,0.4-0.9l2.9-0.6c0.6-0.1,1-0.4,0.6-1.1c-3.3-5-7.6-10.9-11.8-15.6c-0.2-0.2-0.4-0.4-0.7-0.4c-0.4,0-1.8-0.1-2.4-0.1
		c-0.1,3-0.3,13-0.3,15.9c0,0.7,0.2,0.9,0.7,1.1l3.2,0.8c0.2,0.1,0.4,0.5,0.4,0.9c0,0.1-0.1,0.2-0.2,0.2c-2-0.1-5.2-0.1-8.8-0.1
		c-3.7,0-7.1,0.1-8.6,0.1c-0.2,0-0.2-0.1-0.2-0.2c0-0.4,0.1-0.9,0.4-0.9l3.2-0.6c0.5-0.1,0.7-0.4,0.7-1c0-2.8-0.1-15.8-0.1-19.3
		c-0.1-2.9-0.2-16.5-0.4-19.2c-0.1-0.8-0.2-1.2-0.6-1.2l-2.9-0.4c-0.2-0.1-0.4-0.5-0.4-0.9c0-0.1,0-0.2,0.2-0.2
		c3.6-0.3,10.5-0.9,17.5-0.9C-95.2,397.1-89.6,401.4-89.6,408.9L-89.6,408.9z M-109.9,421.8c5.3,0,9.4-5.3,9.4-12.5
		c0-6.2-3.4-11-8.3-11c-1.4,0-2,0.2-2,1.1c-0.4,5.5-0.9,20-0.9,21.3C-111.7,421.5-111.3,421.8-109.9,421.8L-109.9,421.8z"></path>
</g>
<path class="st st1 uJCpiKZQ_3" d="M-219.5,420.9A72.5,72.5 0,1,1 -74.5,420.9A72.5,72.5 0,1,1 -219.5,420.9"></path>
<style>.uJCpiKZQ_0{stroke-dasharray:212 214;stroke-dashoffset:213;animation:uJCpiKZQ_draw 700ms linear 0ms forwards;}.uJCpiKZQ_1{stroke-dasharray:266 268;stroke-dashoffset:267;animation:uJCpiKZQ_draw 700ms linear 333ms forwards;}.uJCpiKZQ_2{stroke-dasharray:280 282;stroke-dashoffset:281;animation:uJCpiKZQ_draw 700ms linear 666ms forwards;}.uJCpiKZQ_3{stroke-dasharray:456 458;stroke-dashoffset:457;animation:uJCpiKZQ_draw 700ms linear 500ms forwards;}@keyframes uJCpiKZQ_draw{100%{stroke-dashoffset:0;}}@keyframes uJCpiKZQ_fade{0%{stroke-opacity:1;}94.44444444444444%{stroke-opacity:1;}100%{stroke-opacity:0;}}</style>
<script type="text/ecmascript">
<!-- <![CDATA[
	$('svg').hover(
	function(){
		location.reload();
	},
	function(e){
		e.preventDefault();
	});
]]> -->
</script>
</svg>
