<!--?xml version="1.0" encoding="utf-8"?-->
<!-- Generator: Adobe Illustrator 19.0.0, SVG Export Plug-In . SVG Version: 6.00 Build 0)  -->
<svg version="1.1" id="Layer_1" xmlns="http://www.w3.org/2000/svg" xmlns:xlink="http://www.w3.org/1999/xlink" x="0px" y="0px" viewBox="-225 345 157 153" style="" xml:space="preserve">
<script xlink:href="http://cdnjs.cloudflare.com/ajax/libs/jquery/2.0.0/jquery.min.js"></script>
<style type="text/css">
	.st0{fill:url(#skyGradient);}
	.st1{fill:none;stroke:url(#skyGradient);stroke-width:3.516;stroke-linecap:round;stroke-linejoin:round;stroke-miterlimit:10;}
	.st2{fill:none;stroke:url(#skyGradient);stroke-width:2.4464;stroke-miterlimit:10;}
	.st3{fill:none;stroke:url(#skyGradient);stroke-width:7;stroke-miterlimit:10;}
	svg:hover .st{
		stroke:url(#skyGradient);
	}
	svg:hover .st0{
		fill:url(#skyGradient);
	} 
</style>

<defs>
    <linearGradient id="skyGradient" x1="100%" y1="100%">
      <stop offset="0%" stop-color="lightblue" stop-opacity=".5">
        <animate attributeName="stop-color" values="lightblue;blue;red;red;black;red;red;purple;lightblue;lightblue;blue;red;red;black;red;red;purple;lightblue;lightblue;blue;red;red;black;red;red;purple;lightblue;lightblue;blue;red;red;black;red;red;purple;lightblue;lightblue;blue;red;red;black;red;red;purple;lightblue" dur="10s" repeatCount="indefinite" />
      </stop>
      <stop offset="100%" stop-color="lightblue" stop-opacity=".5">
        <animate attributeName="stop-color" values="lightblue;orange;purple;purple;black;purple;purple;blue;lightblue;lightblue;orange;purple;purple;black;purple;purple;blue;lightblue;lightblue;orange;purple;purple;black;purple;purple;blue;lightblue" dur="6s" repeatCount="indefinite" />
        <animate attributeName="offset" values=".95;.80;.60;.40;.20;0;.20;.40;.60;.80;.95" dur="6s" repeatCount="indefinite" />
      </stop>
    </linearGradient>
</defs>

<path id="XMLID_262_" class="st st0 FuNqLtQU_0" d="M-169.1,443.2l-31.6-7.9c0,0-8.7-0.8-10.5,2.6c0,0-2.6,3.7,6.5,7.2c9.1,3.5,43,17.9,43,17.9
	s7.7,3.5,15,1.4c7.3-2,32-9.3,32-9.3s9-4.2,27.6,0.1v-19.6c0,0-26-4.5-32.8-3.6c-6.7,0.9-10.6,1.2-15.3,2.9
	c-4.7,1.7-12.7,4.4-25.5,7.4s-7.4,8.1-7.4,8.1s0.9,3.8,22,1.9l7.5-0.6c0,0-17,5.4-28.2,2.4S-169.1,443.2-169.1,443.2z"></path>
<path id="XMLID_261_" class="st st1 FuNqLtQU_1" d="M-184.2,439.9L-184.4,418.3L-199.2,418.3L-159.2,376.7L-141.6,396.4L-141.7,380.9L
	-135.8,380.9L-135.7,403L-122.1,418.3L-134.4,418.3L-134.4,439.9"></path>
<path id="XMLID_255_" class="st st2 FuNqLtQU_2" d="M-156.2,436.6h-7c-0.8,0-1.5-0.7-1.5-1.5v-13.7c0-0.8,0.7-1.5,1.5-1.5h7c0.8,0,1.5,0.7,1.5,1.5
	v13.7C-154.7,436-155.4,436.6-156.2,436.6z"></path>
<g id="XMLID_246_">
	<path id="XMLID_254_" class="st2 FuNqLtQU_3" d="M-170.9,414.9h-4.2c-0.2,0-0.4-0.2-0.4-0.4V407c0-0.2,0.2-0.4,0.4-0.4h4.2
		c0.2,0,0.4,0.2,0.4,0.4v7.5C-170.5,414.7-170.6,414.9-170.9,414.9z"></path>
	<path id="XMLID_253_" class="st2 FuNqLtQU_4" d="M-162,414.9h-4.2c-0.2,0-0.4-0.2-0.4-0.4V407c0-0.2,0.2-0.4,0.4-0.4h4.2
		c0.2,0,0.4,0.2,0.4,0.4v7.5C-161.6,414.7-161.8,414.9-162,414.9z"></path>
	<path id="XMLID_252_" class="st2 FuNqLtQU_5" d="M-153.1,414.9h-4.2c-0.2,0-0.4-0.2-0.4-0.4V407c0-0.2,0.2-0.4,0.4-0.4h4.2
		c0.2,0,0.4,0.2,0.4,0.4v7.5C-152.7,414.7-152.9,414.9-153.1,414.9z"></path>
	<path id="XMLID_251_" class="st2 FuNqLtQU_6" d="M-144.3,414.9h-4.2c-0.2,0-0.4-0.2-0.4-0.4V407c0-0.2,0.2-0.4,0.4-0.4h4.2
		c0.2,0,0.4,0.2,0.4,0.4v7.5C-143.9,414.7-144.1,414.9-144.3,414.9z"></path>
</g>
<path id="XMLID_249_" class="st0 FuNqLtQU_7" d="M-142,376.6c0,0,2.8-6.8-3.5-8.6c-6.3-1.8,0-9.6,0-9.6s6.3-1.8,7.3,3.5c1,5.2,3.1,3.8,2.3,7.4
	c-0.8,3.6-4.1,7.3-4.1,7.3H-142z"></path>
<path id="XMLID_248_" class="st0 FuNqLtQU_8" d="M-137.1,378.2c0,0-0.1-2,4-4c4.1-2,5.4,0,5.4,0s1,4-1.2,4s-6-1.1-6.7,0
	S-137.1,378.2-137.1,378.2z"></path>
<path class="st3 FuNqLtQU_9" d="M-219.5,420.9A72.5,72.5 0,1,1 -74.5,420.9A72.5,72.5 0,1,1 -219.5,420.9"></path>
<style>.FuNqLtQU_0{stroke-dasharray:361 363;stroke-dashoffset:362;animation:FuNqLtQU_draw 700ms linear 0ms forwards;}.FuNqLtQU_1{stroke-dasharray:219 221;stroke-dashoffset:220;animation:FuNqLtQU_draw 700ms linear 111ms forwards;}.FuNqLtQU_2{stroke-dasharray:51 53;stroke-dashoffset:52;animation:FuNqLtQU_draw 700ms linear 222ms forwards;}.FuNqLtQU_3{stroke-dasharray:26 28;stroke-dashoffset:27;animation:FuNqLtQU_draw 700ms linear 333ms forwards;}.FuNqLtQU_4{stroke-dasharray:26 28;stroke-dashoffset:27;animation:FuNqLtQU_draw 700ms linear 444ms forwards;}.FuNqLtQU_5{stroke-dasharray:26 28;stroke-dashoffset:27;animation:FuNqLtQU_draw 700ms linear 555ms forwards;}.FuNqLtQU_6{stroke-dasharray:26 28;stroke-dashoffset:27;animation:FuNqLtQU_draw 700ms linear 666ms forwards;}.FuNqLtQU_7{stroke-dasharray:51 53;stroke-dashoffset:52;animation:FuNqLtQU_draw 700ms linear 777ms forwards;}.FuNqLtQU_8{stroke-dasharray:26 28;stroke-dashoffset:27;animation:FuNqLtQU_draw 700ms linear 888ms forwards;}.FuNqLtQU_9{stroke-dasharray:456 458;stroke-dashoffset:457;animation:FuNqLtQU_draw 700ms linear 500ms forwards;}@keyframes FuNqLtQU_draw{100%{stroke-dashoffset:0;}}@keyframes FuNqLtQU_fade{0%{stroke-opacity:1;}94.44444444444444%{stroke-opacity:1;}100%{stroke-opacity:0;}}</style>
<script type="text/ecmascript">
<!-- <![CDATA[
	$('svg').hover(
	function(){
		location.reload();
	},
	function(e){
		e.preventDefault();
	});
]]> -->
</script>
</svg>
