<!--?xml version="1.0" encoding="utf-8"?-->
<!-- Generator: Adobe Illustrator 19.0.0, SVG Export Plug-In . SVG Version: 6.00 Build 0)  -->
<svg version="1.1" id="Layer_1" xmlns="http://www.w3.org/2000/svg" xmlns:xlink="http://www.w3.org/1999/xlink" x="0px" y="0px" viewBox="-225 345 157 153" style="" xml:space="preserve">
	<script xlink:href="http://cdnjs.cloudflare.com/ajax/libs/jquery/2.0.0/jquery.min.js"></script>
<style type="text/css">
	.st0{fill:url(#skyGradient);}
	.st1{fill:none;stroke:url(#skyGradient);stroke-width:2.4464;stroke-linecap:round;stroke-linejoin:round;stroke-miterlimit:10;}
	.st2{fill:none;stroke:url(#skyGradient);stroke-width:1.2232;stroke-miterlimit:10;}
	.st3{fill:none;stroke:url(#skyGradient);stroke-width:5;stroke-miterlimit:10;}
	svg:hover .st{
		stroke:url(#skyGradient);
	}
</style>

<defs>
    <linearGradient id="skyGradient" x1="100%" y1="100%">
      <stop offset="0%" stop-color="lightblue" stop-opacity=".5">
        <animate attributeName="stop-color" values="lightblue;blue;red;red;black;red;red;purple;lightblue;lightblue;blue;red;red;black;red;red;purple;lightblue;lightblue;blue;red;red;black;red;red;purple;lightblue;lightblue;blue;red;red;black;red;red;purple;lightblue;lightblue;blue;red;red;black;red;red;purple;lightblue" dur="10s" repeatCount="indefinite" />
      </stop>
      <stop offset="100%" stop-color="lightblue" stop-opacity=".5">
        <animate attributeName="stop-color" values="lightblue;orange;purple;purple;black;purple;purple;blue;lightblue;lightblue;orange;purple;purple;black;purple;purple;blue;lightblue;lightblue;orange;purple;purple;black;purple;purple;blue;lightblue" dur="6s" repeatCount="indefinite" />
        <animate attributeName="offset" values=".95;.80;.60;.40;.20;0;.20;.40;.60;.80;.95" dur="6s" repeatCount="indefinite" />
      </stop>
    </linearGradient>
</defs>

<path id="XMLID_624_" class="st st0 HOKkymRV_0" d="M-196.2,397.1c0,0,0.8-0.3,1.3,0.1c0.3,0.2,0.4,0.7,0.4,0.7v3.2h-2.9l1.5,1.6h1.5v5
	c0,0,0.2,1.4,2.2,2.2c2,0.8,5.1-0.9,6.3-2.8c0.7-1.1,1.8-3.4,0.4-5.3c-1.9-2.6-4.4-1-4.3,1c0,0-0.1,1.7,2.4,1.7c0,0,0,1.9-2.3,3.3
	c0,0-2.3,1.4-3-0.6v-4.6h2.4l-1.5-1.6h-0.9v-3.5c0,0,0.1-2.1-1.3-2.6c-1.3-0.5-2.4,0.3-2.4,0.3s-0.4,0.2-0.2,0.7
	S-196.2,397.1-196.2,397.1z"></path>
<path id="XMLID_2_" class="st st1 HOKkymRV_1" d="M-200.1,389.5L-200.1,455L-94.5,455"></path>
<path id="XMLID_440_" class="st st0 HOKkymRV_2" d="M-200.1,390.6L-204.3,390.6L-202.2,387.7L-200.1,384.8L-198.1,387.7L-196,390.6Z"></path>
<path id="XMLID_566_" class="st st0 HOKkymRV_3" d="M-94.5,455L-94.5,450.8L-91.6,452.9L-88.7,455L-91.6,457L-94.5,459.1Z"></path>
<path id="XMLID_567_" class="st st0 HOKkymRV_4" d="M-163,416.6A2.8,2.8 0,1,1 -157.39999999999998,416.6A2.8,2.8 0,1,1 -163,416.6"></path>
<path id="XMLID_583_" class="st st0 HOKkymRV_5" d="M-153.70000000000002,412.4A2.8,2.8 0,1,1 -148.1,412.4A2.8,2.8 0,1,1 -153.70000000000002,412.4"></path>
<path id="XMLID_584_" class="st st0 HOKkymRV_6" d="M-144.70000000000002,419A2.8,2.8 0,1,1 -139.1,419A2.8,2.8 0,1,1 -144.70000000000002,419"></path>
<path id="XMLID_585_" class="st st0 HOKkymRV_7" d="M-135.70000000000002,407.6A2.8,2.8 0,1,1 -130.1,407.6A2.8,2.8 0,1,1 -135.70000000000002,407.6"></path>
<path id="XMLID_586_" class="st st0 HOKkymRV_8" d="M-126.5,402.4A2.8,2.8 0,1,1 -120.9,402.4A2.8,2.8 0,1,1 -126.5,402.4"></path>
<path id="XMLID_587_" class="st st0 HOKkymRV_9" d="M-117.5,393A2.8,2.8 0,1,1 -111.9,393A2.8,2.8 0,1,1 -117.5,393"></path>
<path id="XMLID_588_" class="st st0 HOKkymRV_10" d="M-108,387.2A2.8,2.8 0,1,1 -102.4,387.2A2.8,2.8 0,1,1 -108,387.2"></path>
<path id="XMLID_580_" class="st st0 HOKkymRV_11" d="M-190.4,430.6A2.8,2.8 0,1,1 -184.79999999999998,430.6A2.8,2.8 0,1,1 -190.4,430.6"></path>
<path id="XMLID_581_" class="st st0 HOKkymRV_12" d="M-181.70000000000002,422.5A2.8,2.8 0,1,1 -176.1,422.5A2.8,2.8 0,1,1 -181.70000000000002,422.5"></path>
<path id="XMLID_582_" class="st st0 HOKkymRV_13" d="M-172.10000000000002,426.8A2.8,2.8 0,1,1 -166.5,426.8A2.8,2.8 0,1,1 -172.10000000000002,426.8"></path>
<path id="XMLID_579_" class="st st2 HOKkymRV_14" d="M-186.8,430.6L-179.4,423.5"></path>
<path id="XMLID_589_" class="st st2 HOKkymRV_15" d="M-177.8,423.3L-169.7,426.4"></path>
<path id="XMLID_590_" class="st st2 HOKkymRV_16" d="M-169,425.9L-161.3,417.6"></path>
<path id="XMLID_591_" class="st st2 HOKkymRV_17" d="M-159.3,415.8L-152.1,413.1"></path>
<path id="XMLID_592_" class="st st2 HOKkymRV_18" d="M-149.8,412.9L-142,418.4"></path>
<path id="XMLID_593_" class="st st2 HOKkymRV_19" d="M-141,418.4L-133.3,408.5"></path>
<path id="XMLID_594_" class="st st2 HOKkymRV_20" d="M-132,406.9L-124.3,403.3"></path>
<path id="XMLID_621_" class="st st2 HOKkymRV_21" d="M-122.6,401.4L-115.3,393.6"></path>
<path id="XMLID_622_" class="st st2 HOKkymRV_22" d="M-113.5,392.3L-106.1,388.1"></path>
<path class="st st3 HOKkymRV_23" d="M-219.3,420.9A72.5,72.5 0,1,1 -74.30000000000001,420.9A72.5,72.5 0,1,1 -219.3,420.9"></path>
<path class="st st3 HOKkymRV_24" d="M-105.2,454.9L-105.190,392"></path>
<path class="st st3 HOKkymRV_25" d="M-114.5,454.9L-114,398.800"></path>
<path class="st st3 HOKkymRV_26" d="M-123.7,454.9L-123,407.900"></path>
<path class="st st3 HOKkymRV_27" d="M-132.9,454.9L-132.101,413.510"></path>
<path class="st st3 HOKkymRV_28" d="M-142.5,454.9L-142.101,425.301"></path>
<path class="st st3 HOKkymRV_29" d="M-151.2,454.9L-151.101,418.601"></path>
<path class="st st3 HOKkymRV_30" d="M-160.4,454.9L-160.401,422.801"></path>
<path class="st st3 HOKkymRV_31" d="M-169.6,454.9L-169.501,432.801"></path>
<path class="st st3 HOKkymRV_32" d="M-178.6,454.9L-177.601,425.300"></path>
<path class="st st3 HOKkymRV_33" d="M-187.6,454.9L-187.501,436.901"></path>
<style>.HOKkymRV_0{stroke-dasharray:72 74;stroke-dashoffset:73;animation:HOKkymRV_draw 700ms linear 0ms forwards;}.HOKkymRV_1{stroke-dasharray:172 174;stroke-dashoffset:173;animation:HOKkymRV_draw 700ms linear 30ms forwards;}.HOKkymRV_2{stroke-dasharray:23 25;stroke-dashoffset:24;animation:HOKkymRV_draw 700ms linear 60ms forwards;}.HOKkymRV_3{stroke-dasharray:23 25;stroke-dashoffset:24;animation:HOKkymRV_draw 700ms linear 90ms forwards;}.HOKkymRV_4{stroke-dasharray:18 20;stroke-dashoffset:19;animation:HOKkymRV_draw 700ms linear 121ms forwards;}.HOKkymRV_5{stroke-dasharray:18 20;stroke-dashoffset:19;animation:HOKkymRV_draw 700ms linear 151ms forwards;}.HOKkymRV_6{stroke-dasharray:18 20;stroke-dashoffset:19;animation:HOKkymRV_draw 700ms linear 181ms forwards;}.HOKkymRV_7{stroke-dasharray:18 20;stroke-dashoffset:19;animation:HOKkymRV_draw 700ms linear 212ms forwards;}.HOKkymRV_8{stroke-dasharray:18 20;stroke-dashoffset:19;animation:HOKkymRV_draw 700ms linear 242ms forwards;}.HOKkymRV_9{stroke-dasharray:18 20;stroke-dashoffset:19;animation:HOKkymRV_draw 700ms linear 272ms forwards;}.HOKkymRV_10{stroke-dasharray:18 20;stroke-dashoffset:19;animation:HOKkymRV_draw 700ms linear 303ms forwards;}.HOKkymRV_11{stroke-dasharray:18 20;stroke-dashoffset:19;animation:HOKkymRV_draw 700ms linear 333ms forwards;}.HOKkymRV_12{stroke-dasharray:18 20;stroke-dashoffset:19;animation:HOKkymRV_draw 700ms linear 363ms forwards;}.HOKkymRV_13{stroke-dasharray:18 20;stroke-dashoffset:19;animation:HOKkymRV_draw 700ms linear 393ms forwards;}.HOKkymRV_14{stroke-dasharray:11 13;stroke-dashoffset:12;animation:HOKkymRV_draw 700ms linear 424ms forwards;}.HOKkymRV_15{stroke-dasharray:9 11;stroke-dashoffset:10;animation:HOKkymRV_draw 700ms linear 454ms forwards;}.HOKkymRV_16{stroke-dasharray:12 14;stroke-dashoffset:13;animation:HOKkymRV_draw 700ms linear 484ms forwards;}.HOKkymRV_17{stroke-dasharray:8 10;stroke-dashoffset:9;animation:HOKkymRV_draw 700ms linear 515ms forwards;}.HOKkymRV_18{stroke-dasharray:10 12;stroke-dashoffset:11;animation:HOKkymRV_draw 700ms linear 545ms forwards;}.HOKkymRV_19{stroke-dasharray:13 15;stroke-dashoffset:14;animation:HOKkymRV_draw 700ms linear 575ms forwards;}.HOKkymRV_20{stroke-dasharray:9 11;stroke-dashoffset:10;animation:HOKkymRV_draw 700ms linear 606ms forwards;}.HOKkymRV_21{stroke-dasharray:11 13;stroke-dashoffset:12;animation:HOKkymRV_draw 700ms linear 636ms forwards;}.HOKkymRV_22{stroke-dasharray:9 11;stroke-dashoffset:10;animation:HOKkymRV_draw 700ms linear 666ms forwards;}.HOKkymRV_23{stroke-dasharray:456 458;stroke-dashoffset:457;animation:HOKkymRV_draw 700ms linear 696ms forwards;}.HOKkymRV_24{stroke-dasharray:62 64;stroke-dashoffset:63;animation:HOKkymRV_draw 700ms linear 727ms forwards;}.HOKkymRV_25{stroke-dasharray:57 59;stroke-dashoffset:58;animation:HOKkymRV_draw 700ms linear 757ms forwards;}.HOKkymRV_26{stroke-dasharray:47 49;stroke-dashoffset:48;animation:HOKkymRV_draw 700ms linear 787ms forwards;}.HOKkymRV_27{stroke-dasharray:42 44;stroke-dashoffset:43;animation:HOKkymRV_draw 700ms linear 818ms forwards;}.HOKkymRV_28{stroke-dasharray:30 32;stroke-dashoffset:31;animation:HOKkymRV_draw 700ms linear 848ms forwards;}.HOKkymRV_29{stroke-dasharray:37 39;stroke-dashoffset:38;animation:HOKkymRV_draw 700ms linear 878ms forwards;}.HOKkymRV_30{stroke-dasharray:33 35;stroke-dashoffset:34;animation:HOKkymRV_draw 700ms linear 909ms forwards;}.HOKkymRV_31{stroke-dasharray:23 25;stroke-dashoffset:24;animation:HOKkymRV_draw 700ms linear 939ms forwards;}.HOKkymRV_32{stroke-dasharray:27 29;stroke-dashoffset:28;animation:HOKkymRV_draw 700ms linear 969ms forwards;}.HOKkymRV_33{stroke-dasharray:18 20;stroke-dashoffset:19;animation:HOKkymRV_draw 700ms linear 500ms forwards;}@keyframes HOKkymRV_draw{100%{stroke-dashoffset:0;}}@keyframes HOKkymRV_fade{0%{stroke-opacity:1;}94.44444444444444%{stroke-opacity:1;}100%{stroke-opacity:0;}}</style>
<script type="text/ecmascript">
<!-- <![CDATA[
	$('svg').hover(
	function(){
		location.reload();
	},
	function(e){
		e.preventDefault();
	});
]]> -->
</script>
</svg>
