<!--?xml version="1.0" encoding="utf-8"?-->
<!-- Generator: Adobe Illustrator 19.0.0, SVG Export Plug-In . SVG Version: 6.00 Build 0)  -->
<svg version="1.1" id="Layer_1" xmlns="http://www.w3.org/2000/svg" xmlns:xlink="http://www.w3.org/1999/xlink" x="0px" y="0px" viewBox="-225 345 157 153" style="" xml:space="preserve">
<script xlink:href="http://cdnjs.cloudflare.com/ajax/libs/jquery/2.0.0/jquery.min.js"></script>
<style type="text/css">
	.st0{fill:url(#skyGradient);}
	.st1{fill:url(#skyGradient);stroke:url(#skyGradient);stroke-width:5;stroke-miterlimit:10;}
	.st2{fill:#FFFFFF;}
	.st3{fill:url(#skyGradient);stroke:url(#skyGradient);stroke-width:4;stroke-miterlimit:10;}
	.st4{fill:none;stroke:url(#skyGradient);stroke-width:7;stroke-miterlimit:10;}
	svg:hover .st{
		stroke:url(#skyGradient);
	}
	svg:hover .st0{
		fill:url(#skyGradient);
	} 
</style>

<defs>
    <linearGradient id="skyGradient" x1="100%" y1="100%">
      <stop offset="0%" stop-color="lightblue" stop-opacity=".5">
        <animate attributeName="stop-color" values="lightblue;blue;red;red;black;red;red;purple;lightblue;lightblue;blue;red;red;black;red;red;purple;lightblue;lightblue;blue;red;red;black;red;red;purple;lightblue;lightblue;blue;red;red;black;red;red;purple;lightblue;lightblue;blue;red;red;black;red;red;purple;lightblue" dur="10s" repeatCount="indefinite" />
      </stop>
      <stop offset="100%" stop-color="lightblue" stop-opacity=".5">
        <animate attributeName="stop-color" values="lightblue;orange;purple;purple;black;purple;purple;blue;lightblue;lightblue;orange;purple;purple;black;purple;purple;blue;lightblue;lightblue;orange;purple;purple;black;purple;purple;blue;lightblue" dur="6s" repeatCount="indefinite" />
        <animate attributeName="offset" values=".95;.80;.60;.40;.20;0;.20;.40;.60;.80;.95" dur="6s" repeatCount="indefinite" />
      </stop>
    </linearGradient>
</defs>

<path id="XMLID_370_" class="st st0 AhCcdYqL_0" d="M-125.7,443.9l29.9-7.5c0,0,8.2-0.7,9.9,2.4c0,0,2.4,3.5-6.2,6.8c-8.6,3.3-40.7,16.9-40.7,16.9
	s-7.3,3.3-14.2,1.3c-6.9-1.9-30.3-8.8-30.3-8.8s-8.5-4-26.1,0.1v-18.3c0,0,24.6-4.2,31-3.4c6.4,0.8,10,1.1,14.5,2.7s12,4.1,24.1,7
	s7,7.6,7,7.6s-0.8,3.6-20.8,1.8l-7.1-0.6c0,0,16.1,5.1,26.6,2.3C-117.5,451.4-125.7,443.9-125.7,443.9z"></path>
<g>
	<path class="st1 AhCcdYqL_1" d="M-138,425.4A11.4,11.4 0,1,1 -115.19999999999999,425.4A11.4,11.4 0,1,1 -138,425.4"></path>
	<path id="XMLID_506_" class="st2 AhCcdYqL_2" d="M-132.9,418.6c0,0,1-0.3,1.7,0.1c0.4,0.3,0.5,0.9,0.5,0.9v4.1h-3.7l1.9,2h1.9v6.5
		c0,0,0.3,1.8,2.8,2.8c2.5,1,6.5-1.1,7.9-3.6c0.8-1.4,2.3-4.4,0.5-6.8c-2.4-3.4-5.6-1.3-5.4,1.3c0,0-0.1,2.2,3.1,2.2
		c0,0,0,2.4-2.9,4.3c0,0-2.9,1.9-3.8-0.8v-5.9h3l-1.9-2h-1.2v-4.5c0,0,0.1-2.7-1.7-3.3c-1.6-0.6-3,0.4-3,0.4s-0.5,0.3-0.2,0.9
		C-133.4,417.9-132.9,418.6-132.9,418.6z"></path>
</g>
<g>
	<path class="st3 AhCcdYqL_3" d="M-140.4,390.7A7.5,7.5 0,1,1 -125.4,390.7A7.5,7.5 0,1,1 -140.4,390.7"></path>
	<g id="XMLID_407_">
		<path id="XMLID_408_" class="st2 AhCcdYqL_4" d="M-138.5,388.2c0,0,0.5-0.5,1-0.4c0.3,0.1,0.5,0.4,0.5,0.4l1,2.4l-2.3,0.9l1.6,0.7l1.1-0.5
			l1.6,3.9c0,0,0.6,1,2.4,1s3.6-2.3,3.9-4.2c0.2-1.1,0.3-3.2-1.4-4.2c-2.3-1.4-3.8,0.6-3,2.2c0,0,0.5,1.3,2.4,0.6
			c0,0,0.6,1.4-0.7,3.3c0,0-1.3,1.9-2.5,0.5l-1.5-3.5l1.8-0.8l-1.4-0.7l-0.7,0.3l-1.1-2.7c0,0-0.6-1.6-1.9-1.6c-1.1,0.1-1.7,1-1.7,1
			s-0.2,0.3,0.1,0.6C-139,387.9-138.5,388.2-138.5,388.2z"></path>
	</g>
</g>
<g>
	<path class="st3 AhCcdYqL_5" d="M-158.6,371.7A6.9,6.9 0,1,1 -144.79999999999998,371.7A6.9,6.9 0,1,1 -158.6,371.7"></path>
	<g id="XMLID_415_">
		<path id="XMLID_416_" class="st2 AhCcdYqL_6" d="M-155.7,367.7c0,0,0.6-0.2,1,0c0.3,0.2,0.3,0.5,0.3,0.5l0.1,2.5l-2.3,0.1l1.2,1.2h1.1
			l0.1,3.9c0,0,0.2,1.1,1.8,1.6c1.6,0.6,4-0.8,4.8-2.3c0.5-0.9,1.3-2.7,0.2-4.2c-1.6-2-3.5-0.7-3.3,0.9c0,0,0,1.3,1.9,1.3
			c0,0,0,1.5-1.7,2.7c0,0-1.8,1.2-2.4-0.4v-3.6l1.9-0.1l-1.2-1.2h-0.7l-0.1-2.7c0,0,0-1.6-1.1-2c-1-0.3-1.8,0.3-1.8,0.3
			s-0.3,0.2-0.1,0.6C-156,367.3-155.7,367.7-155.7,367.7z"></path>
	</g>
</g>
<g>
	<path class="st3 AhCcdYqL_7" d="M-163.79999999999998,415.6A8.2,8.2 0,1,1 -147.4,415.6A8.2,8.2 0,1,1 -163.79999999999998,415.6"></path>
	<g id="XMLID_412_">
		<path id="XMLID_413_" class="st2 AhCcdYqL_8" d="M-159.5,409.9c0,0,0.8-0.1,1.2,0.3c0.3,0.2,0.3,0.7,0.3,0.7l-0.4,3l-2.7-0.4l1.2,1.7l1.4,0.2
			l-0.7,4.7c0,0,0,1.3,1.7,2.3s4.9-0.1,6.2-1.8c0.8-0.9,2.1-2.9,1.1-4.9c-1.4-2.7-4-1.6-4.1,0.4c0,0-0.3,1.5,2,1.9
			c0,0-0.3,1.7-2.6,2.8c0,0-2.3,1-2.7-0.9l0.6-4.3l2.2,0.3l-1.2-1.6l-0.9-0.1l0.5-3.3c0,0,0.3-1.9-0.9-2.6c-1.1-0.6-2.2,0-2.2,0
			s-0.4,0.2-0.3,0.7S-159.5,409.9-159.5,409.9z"></path>
	</g>
</g>
<path class="st st4 AhCcdYqL_9" d="M-219.5,421A72.5,72.5 0,1,1 -74.5,421A72.5,72.5 0,1,1 -219.5,421"></path>
<style>.AhCcdYqL_0{stroke-dasharray:341 343;stroke-dashoffset:342;animation:AhCcdYqL_draw 700ms linear 0ms forwards;}.AhCcdYqL_1{stroke-dasharray:72 74;stroke-dashoffset:73;animation:AhCcdYqL_draw 700ms linear 111ms forwards;}.AhCcdYqL_2{stroke-dasharray:92 94;stroke-dashoffset:93;animation:AhCcdYqL_draw 700ms linear 222ms forwards;}.AhCcdYqL_3{stroke-dasharray:48 50;stroke-dashoffset:49;animation:AhCcdYqL_draw 700ms linear 333ms forwards;}.AhCcdYqL_4{stroke-dasharray:60 62;stroke-dashoffset:61;animation:AhCcdYqL_draw 700ms linear 444ms forwards;}.AhCcdYqL_5{stroke-dasharray:44 46;stroke-dashoffset:45;animation:AhCcdYqL_draw 700ms linear 555ms forwards;}.AhCcdYqL_6{stroke-dasharray:56 58;stroke-dashoffset:57;animation:AhCcdYqL_draw 700ms linear 666ms forwards;}
	.AhCcdYqL_7{stroke-dasharray:52 54;stroke-dashoffset:53;animation:AhCcdYqL_draw 700ms linear 777ms forwards;} 
	.AhCcdYqL_8{stroke-dasharray:68 70;stroke-dashoffset:69;animation:AhCcdYqL_draw 700ms linear 888ms forwards;}.AhCcdYqL_9{stroke-dasharray:456 458;stroke-dashoffset:457;animation:AhCcdYqL_draw 700ms linear 500ms forwards;}@keyframes AhCcdYqL_draw{100%{stroke-dashoffset:0;}}@keyframes AhCcdYqL_fade{0%{stroke-opacity:1;}94.44444444444444%{stroke-opacity:1;}100%{stroke-opacity:0;}}</style>
<script type="text/ecmascript">
<!-- <![CDATA[
	$('svg').hover(
	function(){
		location.reload();
	},
	function(e){
		e.preventDefault();
	});
]]> -->
</script>
</svg>
