<?xml version="1.0" encoding="utf-8"?>
<!-- Generator: Adobe Illustrator 19.0.0, SVG Export Plug-In . SVG Version: 6.00 Build 0)  -->
<svg version="1.1" id="Layer_1" xmlns="http://www.w3.org/2000/svg" xmlns:xlink="http://www.w3.org/1999/xlink" x="0px" y="0px"
	 viewBox="0 0 320 136" style="enable-background:new 0 0 320 136;" xml:space="preserve">
<style type="text/css">
	.st0{fill:#020202;}
</style>
<g id="XMLID_59_">
	<g id="XMLID_124_">
		<path id="XMLID_125_" d="M94.1,71.9V40.2H89v-5.1h5.1v-1.7c0-5.2,1.2-9.9,4.3-12.8c2.5-2.4,5.9-3.4,9-3.4c2.4,0,4.4,0.5,5.7,1.1
			l-0.9,5.2c-1-0.5-2.3-0.8-4.3-0.8c-5.7,0-7.1,4.9-7.1,10.6v2h8.9v5.1h-8.9v31.7H94.1z"/>
		<path id="XMLID_127_" d="M125.2,24.7c0,2.3-1.6,4.1-4.3,4.1c-2.4,0-4-1.8-4-4.1s1.7-4.2,4.2-4.2C123.5,20.6,125.2,22.4,125.2,24.7
			z M117.8,71.9V35.1h6.7v36.8H117.8z"/>
		<path id="XMLID_130_" d="M135.6,45c0-3.9-0.1-6.9-0.3-10h5.9l0.4,6.1h0.2c1.8-3.4,6.1-6.8,12.2-6.8c5.1,0,13,3,13,15.7v21.9h-6.7
			V50.7c0-5.9-2.2-10.9-8.5-10.9c-4.3,0-7.8,3.1-9,6.8c-0.3,0.8-0.5,2-0.5,3.1v22.1h-6.7V45z"/>
		<path id="XMLID_132_" d="M205.1,63c0,3.2,0.2,6.3,0.5,8.8h-6l-0.5-4.6h-0.2c-2.1,2.9-6,5.5-11.2,5.5c-7.4,0-11.2-5.2-11.2-10.6
			c0-8.9,7.9-13.8,22.1-13.7v-0.8c0-3-0.8-8.5-8.4-8.4c-3.5,0-7.1,1-9.7,2.7l-1.5-4.5c3-1.9,7.5-3.2,12.2-3.2c11.2,0,14,7.7,14,15
			V63z M198.6,53.1c-7.3-0.2-15.6,1.1-15.6,8.3c0,4.4,2.9,6.4,6.2,6.4c4.9,0,8-3,9-6.2c0.2-0.8,0.3-1.5,0.3-2.1V53.1z"/>
		<path id="XMLID_135_" d="M248.9,66.5c0,8.5-1.7,13.6-5.2,16.9c-3.6,3.3-8.8,4.4-13.5,4.4c-4.4,0-9.3-1.1-12.2-3l1.7-5.2
			c2.4,1.6,6.2,3,10.8,3c6.8,0,11.9-3.6,11.9-12.9v-4h-0.2c-2,3.4-6,6.2-11.7,6.2c-9.1,0-15.7-7.8-15.7-17.9
			c0-12.5,8.1-19.5,16.6-19.5c6.4,0,9.8,3.3,11.5,6.3h0.2l0.2-5.5h5.9c-0.2,2.6-0.3,5.6-0.3,10V66.5z M242.2,49.6
			c0-1.1-0.1-2.1-0.4-3c-1.2-4-4.4-7.1-9.3-7.1c-6.4,0-10.9,5.4-10.9,13.9c0,7.2,3.7,13.2,10.9,13.2c4.2,0,7.9-2.6,9.3-6.8
			c0.4-1.1,0.5-2.4,0.5-3.6V49.6z"/>
		<path id="XMLID_138_" d="M265.1,54.7c0.2,9,5.9,12.8,12.6,12.8c4.8,0,7.8-0.8,10.2-1.9l1.2,4.8c-2.4,1.1-6.5,2.4-12.3,2.4
			c-11.3,0-18.1-7.5-18.1-18.6c0-11.1,6.5-19.8,17.3-19.8c12.1,0,15.2,10.5,15.2,17.3c0,1.4-0.1,2.4-0.2,3.1H265.1z M284.7,49.9
			c0.1-4.2-1.7-10.8-9.3-10.8c-6.8,0-9.7,6.2-10.3,10.8H284.7z"/>
		<path id="XMLID_141_" d="M301,46.5c0-4.3-0.1-8.1-0.3-11.5h5.9l0.3,7.3h0.2c1.7-4.9,5.8-8.1,10.3-8.1c0.7,0,1.2,0.1,1.8,0.2v6.3
			c-0.7-0.2-1.4-0.2-2.3-0.2c-4.7,0-8.1,3.5-9,8.5c-0.2,0.9-0.2,2.1-0.2,3.1v19.6H301V46.5z"/>
	</g>
	<g id="XMLID_51_">
		<path id="XMLID_78_" class="st0" d="M164.3,105.1v-4.9l-3.6-6.6h1.7l1.6,3.2c0.4,0.9,0.8,1.6,1.1,2.4h0c0.3-0.7,0.7-1.5,1.2-2.4
			l1.6-3.2h1.7l-3.8,6.6v4.9H164.3z"/>
		<path id="XMLID_80_" class="st0" d="M177.1,101c0,3-2.1,4.4-4.1,4.4c-2.2,0-3.9-1.6-3.9-4.2c0-2.7,1.8-4.4,4.1-4.4
			C175.5,96.7,177.1,98.5,177.1,101z M170.6,101c0,1.8,1,3.2,2.5,3.2c1.4,0,2.5-1.3,2.5-3.2c0-1.4-0.7-3.1-2.5-3.1
			C171.3,97.9,170.6,99.5,170.6,101z"/>
		<path id="XMLID_83_" class="st0" d="M185.9,102.9c0,0.9,0,1.6,0.1,2.3h-1.3l-0.1-1.3h0c-0.4,0.7-1.3,1.5-2.7,1.5
			c-1.3,0-2.8-0.7-2.8-3.6v-4.8h1.5v4.5c0,1.6,0.5,2.6,1.8,2.6c1,0,1.7-0.7,2-1.4c0.1-0.2,0.1-0.5,0.1-0.8v-5h1.5V102.9z"/>
		<path id="XMLID_85_" class="st0" d="M188.4,99.5c0-1,0-1.8-0.1-2.6h1.3l0.1,1.6h0.1c0.4-1.1,1.3-1.8,2.3-1.8c0.2,0,0.3,0,0.4,0
			v1.4c-0.2,0-0.3,0-0.5,0c-1.1,0-1.8,0.8-2,1.9c0,0.2-0.1,0.5-0.1,0.7v4.4h-1.5V99.5z"/>
		<path id="XMLID_87_" class="st0" d="M197.5,93.7h6.2v1.2H199v3.8h4.3v1.2H199v5.2h-1.5V93.7z"/>
		<path id="XMLID_89_" class="st0" d="M207,94.6c0,0.5-0.4,0.9-1,0.9c-0.5,0-0.9-0.4-0.9-0.9s0.4-0.9,0.9-0.9
			C206.6,93.7,207,94.1,207,94.6z M205.4,105.1v-8.2h1.5v8.2H205.4z"/>
		<path id="XMLID_93_" class="st0" d="M209.3,99.1c0-0.9,0-1.5-0.1-2.2h1.3l0.1,1.4h0c0.4-0.8,1.4-1.5,2.7-1.5
			c1.1,0,2.9,0.7,2.9,3.5v4.9h-1.5v-4.7c0-1.3-0.5-2.4-1.9-2.4c-1,0-1.7,0.7-2,1.5c-0.1,0.2-0.1,0.4-0.1,0.7v4.9h-1.5V99.1z"/>
		<path id="XMLID_95_" class="st0" d="M224.5,103.2c0,0.7,0,1.4,0.1,2h-1.3l-0.1-1h-0.1c-0.5,0.6-1.3,1.2-2.5,1.2
			c-1.7,0-2.5-1.2-2.5-2.4c0-2,1.8-3.1,4.9-3.1v-0.2c0-0.7-0.2-1.9-1.9-1.9c-0.8,0-1.6,0.2-2.2,0.6l-0.3-1c0.7-0.4,1.7-0.7,2.7-0.7
			c2.5,0,3.1,1.7,3.1,3.3V103.2z M223.1,100.9c-1.6,0-3.5,0.3-3.5,1.9c0,1,0.6,1.4,1.4,1.4c1.1,0,1.8-0.7,2-1.4
			c0.1-0.2,0.1-0.3,0.1-0.5V100.9z"/>
		<path id="XMLID_98_" class="st0" d="M227,99.1c0-0.9,0-1.5-0.1-2.2h1.3l0.1,1.4h0c0.4-0.8,1.4-1.5,2.7-1.5c1.1,0,2.9,0.7,2.9,3.5
			v4.9h-1.5v-4.7c0-1.3-0.5-2.4-1.9-2.4c-1,0-1.7,0.7-2,1.5c-0.1,0.2-0.1,0.4-0.1,0.7v4.9H227V99.1z"/>
		<path id="XMLID_101_" class="st0" d="M242.3,104.9c-0.4,0.2-1.3,0.5-2.4,0.5c-2.5,0-4.1-1.7-4.1-4.2c0-2.5,1.7-4.4,4.4-4.4
			c0.9,0,1.7,0.2,2.1,0.4l-0.3,1.1c-0.4-0.2-0.9-0.4-1.7-0.4c-1.9,0-2.9,1.4-2.9,3.1c0,1.9,1.2,3.1,2.9,3.1c0.8,0,1.4-0.2,1.8-0.4
			L242.3,104.9z"/>
		<path id="XMLID_103_" class="st0" d="M244.7,101.3c0,2,1.3,2.9,2.8,2.9c1.1,0,1.7-0.2,2.3-0.4l0.3,1.1c-0.5,0.2-1.4,0.5-2.8,0.5
			c-2.5,0-4-1.7-4-4.2c0-2.5,1.5-4.4,3.9-4.4c2.7,0,3.4,2.3,3.4,3.9c0,0.3,0,0.5-0.1,0.7H244.7z M249.1,100.2c0-0.9-0.4-2.4-2.1-2.4
			c-1.5,0-2.2,1.4-2.3,2.4H249.1z"/>
		<path id="XMLID_106_" class="st0" d="M265.7,100.1c-0.1-1.6-0.2-3.5-0.2-4.9h0c-0.4,1.3-0.9,2.8-1.4,4.4l-2,5.6h-1.1l-1.9-5.5
			c-0.5-1.6-1-3.1-1.3-4.5h0c0,1.4-0.1,3.3-0.2,5.1l-0.3,4.9h-1.4l0.8-11.5h1.9l2,5.5c0.5,1.4,0.9,2.7,1.2,3.9h0
			c0.3-1.2,0.7-2.4,1.2-3.9l2-5.5h1.9l0.7,11.5H266L265.7,100.1z"/>
		<path id="XMLID_108_" class="st0" d="M275.6,103.2c0,0.7,0,1.4,0.1,2h-1.3l-0.1-1h-0.1c-0.5,0.6-1.3,1.2-2.5,1.2
			c-1.7,0-2.5-1.2-2.5-2.4c0-2,1.8-3.1,4.9-3.1v-0.2c0-0.7-0.2-1.9-1.9-1.9c-0.8,0-1.6,0.2-2.2,0.6l-0.3-1c0.7-0.4,1.7-0.7,2.7-0.7
			c2.5,0,3.1,1.7,3.1,3.3V103.2z M274.1,100.9c-1.6,0-3.5,0.3-3.5,1.9c0,1,0.6,1.4,1.4,1.4c1.1,0,1.8-0.7,2-1.4
			c0.1-0.2,0.1-0.3,0.1-0.5V100.9z"/>
		<path id="XMLID_111_" class="st0" d="M278,99.1c0-0.9,0-1.5-0.1-2.2h1.3l0.1,1.4h0c0.4-0.8,1.4-1.5,2.7-1.5c1.1,0,2.9,0.7,2.9,3.5
			v4.9h-1.5v-4.7c0-1.3-0.5-2.4-1.9-2.4c-1,0-1.7,0.7-2,1.5c-0.1,0.2-0.1,0.4-0.1,0.7v4.9H278V99.1z"/>
		<path id="XMLID_113_" class="st0" d="M293.2,103.2c0,0.7,0,1.4,0.1,2H292l-0.1-1h-0.1c-0.5,0.6-1.3,1.2-2.5,1.2
			c-1.7,0-2.5-1.2-2.5-2.4c0-2,1.8-3.1,4.9-3.1v-0.2c0-0.7-0.2-1.9-1.9-1.9c-0.8,0-1.6,0.2-2.2,0.6l-0.3-1c0.7-0.4,1.7-0.7,2.7-0.7
			c2.5,0,3.1,1.7,3.1,3.3V103.2z M291.8,100.9c-1.6,0-3.5,0.3-3.5,1.9c0,1,0.6,1.4,1.4,1.4c1.1,0,1.8-0.7,2-1.4
			c0.1-0.2,0.1-0.3,0.1-0.5V100.9z"/>
		<path id="XMLID_116_" class="st0" d="M302.7,103.9c0,1.9-0.4,3-1.2,3.8c-0.8,0.7-2,1-3,1c-1,0-2.1-0.2-2.7-0.7l0.4-1.2
			c0.5,0.4,1.4,0.7,2.4,0.7c1.5,0,2.7-0.8,2.7-2.9v-0.9h0c-0.4,0.8-1.3,1.4-2.6,1.4c-2,0-3.5-1.7-3.5-4c0-2.8,1.8-4.4,3.7-4.4
			c1.4,0,2.2,0.7,2.6,1.4h0l0.1-1.2h1.3c-0.1,0.6-0.1,1.3-0.1,2.2V103.9z M301.2,100.2c0-0.3,0-0.5-0.1-0.7c-0.3-0.9-1-1.6-2.1-1.6
			c-1.4,0-2.4,1.2-2.4,3.1c0,1.6,0.8,3,2.4,3c0.9,0,1.8-0.6,2.1-1.5c0.1-0.3,0.1-0.5,0.1-0.8V100.2z"/>
		<path id="XMLID_119_" class="st0" d="M306,101.3c0,2,1.3,2.9,2.8,2.9c1.1,0,1.7-0.2,2.3-0.4l0.3,1.1c-0.5,0.2-1.4,0.5-2.8,0.5
			c-2.5,0-4-1.7-4-4.2c0-2.5,1.5-4.4,3.9-4.4c2.7,0,3.4,2.3,3.4,3.9c0,0.3,0,0.5-0.1,0.7H306z M310.3,100.2c0-0.9-0.4-2.4-2.1-2.4
			c-1.5,0-2.2,1.4-2.3,2.4H310.3z"/>
		<path id="XMLID_122_" class="st0" d="M313.6,99.5c0-1,0-1.8-0.1-2.6h1.3l0.1,1.6h0.1c0.4-1.1,1.3-1.8,2.3-1.8c0.2,0,0.3,0,0.4,0
			v1.4c-0.2,0-0.3,0-0.5,0c-1.1,0-1.8,0.8-2,1.9c0,0.2-0.1,0.5-0.1,0.7v4.4h-1.5V99.5z"/>
	</g>
	<g id="XMLID_16_">
		<path id="XMLID_28_" d="M30.3,45.3l47.8,0c0,0,2-0.1,2,2.1c0,2.2-2,2.1-2,2.1l-47.8,0c0,0-2,0-2-2.1
			C28.3,45.2,30.3,45.3,30.3,45.3z"/>
		<path id="XMLID_35_" d="M30.3,57.6h41.6c0,0,2.1,0,2.1,2.1s-2.1,2.1-2.1,2.1H30.3c0,0-2,0-2-2.1C28.3,57.6,30.3,57.6,30.3,57.6z"
			/>
		<g id="XMLID_36_">
			<path id="XMLID_37_" d="M6.9,6.9c0,0-1.6,0.8-4.4,0.6S0.7,6,0.7,6S1,5.4,3.3,4.2S9,1.6,12.4,1.2s9-1.1,16.8,2.1
				S50.3,15.5,55.5,40s4.5,45.2,18.1,65.6s33.7,26.7,47.1,24.3c13.3-2.4,18.9-9.7,22.6-15c3.7-5.3,6.7-15.7,2.1-23.1
				c-4.6-7.4-14.9-9.1-14.9-9.1s-5.8-1.3-7.5-1.4c-1.7-0.1-2.3-1.1-1.2-2.2c1-1.1,2.8-2,5.5-2.1c2.7-0.1,12.1,1.5,16.9,4
				c4.8,2.6,15.8,7.9,10.9,25.8s-23.3,25.3-33.8,27.3c-10.5,2-29.7,2.1-47.8-15.6S51.9,73.9,51.1,67.8S48.3,23,28,9.8
				C21.4,5.8,14.2,2.8,6.9,6.9z"/>
		</g>
	</g>
</g>
</svg>
