<?xml version="1.0" encoding="utf-8"?>
<!-- Generator: Adobe Illustrator 19.0.0, SVG Export Plug-In . SVG Version: 6.00 Build 0)  -->
<svg version="1.1" id="Layer_1" xmlns="http://www.w3.org/2000/svg" xmlns:xlink="http://www.w3.org/1999/xlink" x="0px" y="0px"
	 viewBox="0 0 405.5 137.1" style="enable-background:new 0 0 405.5 137.1;" xml:space="preserve">
<style type="text/css">
	.st0{fill:#F08921;}
	.st1{fill:#FFFFFF;}
</style>
<g id="XMLID_1_">
	<g id="XMLID_124_">
		<path id="XMLID_125_" d="M94.2,72.8V41.2h-5.1v-5.1h5.1v-1.7c0-5.2,1.2-9.9,4.3-12.8c2.5-2.4,5.9-3.4,9-3.4c2.4,0,4.4,0.5,5.7,1.1
			l-0.9,5.2c-1-0.5-2.3-0.8-4.3-0.8c-5.7,0-7.1,4.9-7.1,10.6v2h8.9v5.1h-8.9v31.7H94.2z"/>
		<path id="XMLID_127_" d="M125.4,25.7c0,2.3-1.6,4.1-4.3,4.1c-2.4,0-4-1.8-4-4.1s1.7-4.2,4.2-4.2C123.7,21.5,125.4,23.4,125.4,25.7
			z M117.9,72.8V36.1h6.7v36.8H117.9z"/>
		<path id="XMLID_130_" d="M135.7,46c0-3.9-0.1-6.9-0.3-10h5.9l0.4,6.1h0.2c1.8-3.4,6.1-6.8,12.2-6.8c5.1,0,13,3,13,15.7v21.9h-6.7
			V51.6c0-5.9-2.2-10.9-8.5-10.9c-4.3,0-7.8,3.1-9,6.8c-0.3,0.8-0.5,2-0.5,3.1v22.1h-6.7V46z"/>
		<path id="XMLID_132_" d="M205.2,64c0,3.2,0.2,6.3,0.5,8.8h-6l-0.5-4.6H199c-2.1,2.9-6,5.5-11.2,5.5c-7.4,0-11.2-5.2-11.2-10.6
			c0-8.9,7.9-13.8,22.1-13.7v-0.8c0-3-0.8-8.5-8.4-8.4c-3.5,0-7.1,1-9.7,2.7l-1.5-4.5c3-1.9,7.5-3.2,12.2-3.2c11.2,0,14,7.7,14,15
			V64z M198.8,54.1c-7.3-0.2-15.6,1.1-15.6,8.3c0,4.4,2.9,6.4,6.2,6.4c4.9,0,8-3,9-6.2c0.2-0.8,0.3-1.5,0.3-2.1V54.1z"/>
		<path id="XMLID_135_" d="M249,67.5c0,8.5-1.7,13.6-5.2,16.9c-3.6,3.3-8.8,4.4-13.5,4.4c-4.4,0-9.3-1.1-12.2-3l1.7-5.2
			c2.4,1.6,6.2,3,10.8,3c6.8,0,11.9-3.6,11.9-12.9v-4h-0.2c-2,3.4-6,6.2-11.7,6.2c-9.1,0-15.7-7.8-15.7-17.9
			c0-12.5,8.1-19.5,16.6-19.5c6.4,0,9.8,3.3,11.5,6.3h0.2l0.2-5.5h5.9c-0.2,2.6-0.3,5.6-0.3,10V67.5z M242.3,50.6
			c0-1.1-0.1-2.1-0.4-3c-1.2-4-4.4-7.1-9.3-7.1c-6.4,0-10.9,5.4-10.9,13.9c0,7.2,3.7,13.2,10.9,13.2c4.2,0,7.9-2.6,9.3-6.8
			c0.4-1.1,0.5-2.4,0.5-3.6V50.6z"/>
		<path id="XMLID_138_" d="M265.3,55.7c0.2,9,5.9,12.8,12.6,12.8c4.8,0,7.8-0.8,10.2-1.9l1.2,4.8c-2.4,1.1-6.5,2.4-12.3,2.4
			c-11.3,0-18.1-7.5-18.1-18.6c0-11.1,6.5-19.8,17.3-19.8c12.1,0,15.2,10.5,15.2,17.3c0,1.4-0.1,2.4-0.2,3.1H265.3z M284.9,50.9
			c0.1-4.2-1.7-10.8-9.3-10.8c-6.8,0-9.7,6.2-10.3,10.8H284.9z"/>
		<path id="XMLID_141_" d="M301.2,47.5c0-4.3-0.1-8.1-0.3-11.5h5.9l0.3,7.3h0.2c1.7-4.9,5.8-8.1,10.3-8.1c0.7,0,1.2,0.1,1.8,0.2v6.3
			c-0.7-0.2-1.4-0.2-2.3-0.2c-4.7,0-8.1,3.5-9,8.5c-0.2,0.9-0.2,2.1-0.2,3.1v19.6h-6.7V47.5z"/>
	</g>
	<g id="XMLID_51_">
		<path id="XMLID_78_" d="M164.5,106.1v-4.9l-3.6-6.6h1.7l1.6,3.2c0.4,0.9,0.8,1.6,1.1,2.4h0c0.3-0.7,0.7-1.5,1.2-2.4l1.6-3.2h1.7
			l-3.8,6.6v4.9H164.5z"/>
		<path id="XMLID_80_" d="M177.2,102c0,3-2.1,4.4-4.1,4.4c-2.2,0-3.9-1.6-3.9-4.2c0-2.7,1.8-4.4,4.1-4.4
			C175.6,97.7,177.2,99.5,177.2,102z M170.7,102c0,1.8,1,3.2,2.5,3.2c1.4,0,2.5-1.3,2.5-3.2c0-1.4-0.7-3.1-2.5-3.1
			C171.5,98.9,170.7,100.5,170.7,102z"/>
		<path id="XMLID_83_" d="M186,103.9c0,0.9,0,1.6,0.1,2.3h-1.3l-0.1-1.3h0c-0.4,0.7-1.3,1.5-2.7,1.5c-1.3,0-2.8-0.7-2.8-3.6v-4.8
			h1.5v4.5c0,1.6,0.5,2.6,1.8,2.6c1,0,1.7-0.7,2-1.4c0.1-0.2,0.1-0.5,0.1-0.8v-5h1.5V103.9z"/>
		<path id="XMLID_85_" d="M188.5,100.5c0-1,0-1.8-0.1-2.6h1.3l0.1,1.6h0.1c0.4-1.1,1.3-1.8,2.3-1.8c0.2,0,0.3,0,0.4,0v1.4
			c-0.2,0-0.3,0-0.5,0c-1.1,0-1.8,0.8-2,1.9c0,0.2-0.1,0.5-0.1,0.7v4.4h-1.5V100.5z"/>
		<path id="XMLID_87_" d="M197.7,94.7h6.2v1.2h-4.7v3.8h4.3v1.2h-4.3v5.2h-1.5V94.7z"/>
		<path id="XMLID_89_" d="M207.2,95.6c0,0.5-0.4,0.9-1,0.9c-0.5,0-0.9-0.4-0.9-0.9s0.4-0.9,0.9-0.9
			C206.8,94.7,207.2,95.1,207.2,95.6z M205.5,106.1v-8.2h1.5v8.2H205.5z"/>
		<path id="XMLID_93_" d="M209.5,100.1c0-0.9,0-1.5-0.1-2.2h1.3l0.1,1.4h0c0.4-0.8,1.4-1.5,2.7-1.5c1.1,0,2.9,0.7,2.9,3.5v4.9H215
			v-4.7c0-1.3-0.5-2.4-1.9-2.4c-1,0-1.7,0.7-2,1.5c-0.1,0.2-0.1,0.4-0.1,0.7v4.9h-1.5V100.1z"/>
		<path id="XMLID_95_" d="M224.7,104.2c0,0.7,0,1.4,0.1,2h-1.3l-0.1-1h-0.1c-0.5,0.6-1.3,1.2-2.5,1.2c-1.7,0-2.5-1.2-2.5-2.4
			c0-2,1.8-3.1,4.9-3.1v-0.2c0-0.7-0.2-1.9-1.9-1.9c-0.8,0-1.6,0.2-2.2,0.6l-0.3-1c0.7-0.4,1.7-0.7,2.7-0.7c2.5,0,3.1,1.7,3.1,3.3
			V104.2z M223.2,101.9c-1.6,0-3.5,0.3-3.5,1.9c0,1,0.6,1.4,1.4,1.4c1.1,0,1.8-0.7,2-1.4c0.1-0.2,0.1-0.3,0.1-0.5V101.9z"/>
		<path id="XMLID_98_" d="M227.1,100.1c0-0.9,0-1.5-0.1-2.2h1.3l0.1,1.4h0c0.4-0.8,1.4-1.5,2.7-1.5c1.1,0,2.9,0.7,2.9,3.5v4.9h-1.5
			v-4.7c0-1.3-0.5-2.4-1.9-2.4c-1,0-1.7,0.7-2,1.5c-0.1,0.2-0.1,0.4-0.1,0.7v4.9h-1.5V100.1z"/>
		<path id="XMLID_101_" d="M242.4,105.8c-0.4,0.2-1.3,0.5-2.4,0.5c-2.5,0-4.1-1.7-4.1-4.2c0-2.5,1.7-4.4,4.4-4.4
			c0.9,0,1.7,0.2,2.1,0.4l-0.3,1.1c-0.4-0.2-0.9-0.4-1.7-0.4c-1.9,0-2.9,1.4-2.9,3.1c0,1.9,1.2,3.1,2.9,3.1c0.8,0,1.4-0.2,1.8-0.4
			L242.4,105.8z"/>
		<path id="XMLID_103_" d="M244.9,102.3c0,2,1.3,2.9,2.8,2.9c1.1,0,1.7-0.2,2.3-0.4l0.3,1.1c-0.5,0.2-1.4,0.5-2.8,0.5
			c-2.5,0-4-1.7-4-4.2c0-2.5,1.5-4.4,3.9-4.4c2.7,0,3.4,2.3,3.4,3.9c0,0.3,0,0.5-0.1,0.7H244.9z M249.3,101.2c0-0.9-0.4-2.4-2.1-2.4
			c-1.5,0-2.2,1.4-2.3,2.4H249.3z"/>
		<path id="XMLID_106_" d="M265.9,101.1c-0.1-1.6-0.2-3.5-0.2-4.9h0c-0.4,1.3-0.9,2.8-1.4,4.4l-2,5.6h-1.1l-1.9-5.5
			c-0.5-1.6-1-3.1-1.3-4.5h0c0,1.4-0.1,3.3-0.2,5.1l-0.3,4.9h-1.4l0.8-11.5h1.9l2,5.5c0.5,1.4,0.9,2.7,1.2,3.9h0
			c0.3-1.2,0.7-2.4,1.2-3.9l2-5.5h1.9l0.7,11.5h-1.5L265.9,101.1z"/>
		<path id="XMLID_108_" d="M275.7,104.2c0,0.7,0,1.4,0.1,2h-1.3l-0.1-1h-0.1c-0.5,0.6-1.3,1.2-2.5,1.2c-1.7,0-2.5-1.2-2.5-2.4
			c0-2,1.8-3.1,4.9-3.1v-0.2c0-0.7-0.2-1.9-1.9-1.9c-0.8,0-1.6,0.2-2.2,0.6l-0.3-1c0.7-0.4,1.7-0.7,2.7-0.7c2.5,0,3.1,1.7,3.1,3.3
			V104.2z M274.3,101.9c-1.6,0-3.5,0.3-3.5,1.9c0,1,0.6,1.4,1.4,1.4c1.1,0,1.8-0.7,2-1.4c0.1-0.2,0.1-0.3,0.1-0.5V101.9z"/>
		<path id="XMLID_111_" d="M278.1,100.1c0-0.9,0-1.5-0.1-2.2h1.3l0.1,1.4h0c0.4-0.8,1.4-1.5,2.7-1.5c1.1,0,2.9,0.7,2.9,3.5v4.9h-1.5
			v-4.7c0-1.3-0.5-2.4-1.9-2.4c-1,0-1.7,0.7-2,1.5c-0.1,0.2-0.1,0.4-0.1,0.7v4.9h-1.5V100.1z"/>
		<path id="XMLID_113_" d="M293.4,104.2c0,0.7,0,1.4,0.1,2h-1.3l-0.1-1H292c-0.5,0.6-1.3,1.2-2.5,1.2c-1.7,0-2.5-1.2-2.5-2.4
			c0-2,1.8-3.1,4.9-3.1v-0.2c0-0.7-0.2-1.9-1.9-1.9c-0.8,0-1.6,0.2-2.2,0.6l-0.3-1c0.7-0.4,1.7-0.7,2.7-0.7c2.5,0,3.1,1.7,3.1,3.3
			V104.2z M291.9,101.9c-1.6,0-3.5,0.3-3.5,1.9c0,1,0.6,1.4,1.4,1.4c1.1,0,1.8-0.7,2-1.4c0.1-0.2,0.1-0.3,0.1-0.5V101.9z"/>
		<path id="XMLID_116_" d="M302.8,104.9c0,1.9-0.4,3-1.2,3.8c-0.8,0.7-2,1-3,1c-1,0-2.1-0.2-2.7-0.7l0.4-1.2
			c0.5,0.4,1.4,0.7,2.4,0.7c1.5,0,2.7-0.8,2.7-2.9v-0.9h0c-0.4,0.8-1.3,1.4-2.6,1.4c-2,0-3.5-1.7-3.5-4c0-2.8,1.8-4.4,3.7-4.4
			c1.4,0,2.2,0.7,2.6,1.4h0l0.1-1.2h1.3c-0.1,0.6-0.1,1.3-0.1,2.2V104.9z M301.3,101.2c0-0.3,0-0.5-0.1-0.7c-0.3-0.9-1-1.6-2.1-1.6
			c-1.4,0-2.4,1.2-2.4,3.1c0,1.6,0.8,3,2.4,3c0.9,0,1.8-0.6,2.1-1.5c0.1-0.3,0.1-0.5,0.1-0.8V101.2z"/>
		<path id="XMLID_119_" d="M306.1,102.3c0,2,1.3,2.9,2.8,2.9c1.1,0,1.7-0.2,2.3-0.4l0.3,1.1c-0.5,0.2-1.4,0.5-2.8,0.5
			c-2.5,0-4-1.7-4-4.2c0-2.5,1.5-4.4,3.9-4.4c2.7,0,3.4,2.3,3.4,3.9c0,0.3,0,0.5-0.1,0.7H306.1z M310.5,101.2c0-0.9-0.4-2.4-2.1-2.4
			c-1.5,0-2.2,1.4-2.3,2.4H310.5z"/>
		<path id="XMLID_122_" d="M313.8,100.5c0-1,0-1.8-0.1-2.6h1.3l0.1,1.6h0.1c0.4-1.1,1.3-1.8,2.3-1.8c0.2,0,0.3,0,0.4,0v1.4
			c-0.2,0-0.3,0-0.5,0c-1.1,0-1.8,0.8-2,1.9c0,0.2-0.1,0.5-0.1,0.7v4.4h-1.5V100.5z"/>
	</g>
	<g id="XMLID_16_">
		<path id="XMLID_28_" d="M30.5,46.1l47.8,0c0,0,2-0.1,2,2.1c0,2.2-2,2.1-2,2.1l-47.8,0c0,0-2,0-2-2.1
			C28.4,46.1,30.5,46.1,30.5,46.1z"/>
		<path id="XMLID_35_" d="M30.5,58.5h41.6c0,0,2.1,0,2.1,2.1s-2.1,2.1-2.1,2.1H30.5c0,0-2,0-2-2.1S30.5,58.5,30.5,58.5z"/>
		<g id="XMLID_36_">
			<path id="XMLID_37_" d="M7.1,7.8c0,0-1.6,0.8-4.4,0.6S0.8,6.9,0.8,6.9s0.3-0.6,2.6-1.8S9.2,2.5,12.6,2s9-1.1,16.8,2.1
				s21.1,12.2,26.2,36.8s4.5,45.2,18.1,65.6s33.7,26.7,47.1,24.3c13.3-2.4,18.9-9.7,22.6-15c3.7-5.3,6.7-15.7,2.1-23.1
				s-14.9-9.1-14.9-9.1s-5.8-1.3-7.5-1.4c-1.7-0.1-2.3-1.1-1.2-2.2s2.8-2,5.5-2.1c2.7-0.1,12.1,1.5,16.9,4
				c4.8,2.6,15.8,7.9,10.9,25.8s-23.3,25.3-33.8,27.3c-10.5,2-29.7,2.1-47.8-15.6S52.1,74.8,51.3,68.7c-0.8-6.1-2.8-44.9-23.1-58
				C21.6,6.7,14.4,3.6,7.1,7.8z"/>
		</g>
	</g>
</g>
<g id="XMLID_15_">
	<path id="XMLID_30_" class="st0" d="M401,50.4h-71.3c-1.3,0-2.3-1-2.3-2.3V32.3c0-1.3,1-2.3,2.3-2.3H401c1.3,0,2.3,1,2.3,2.3v15.8
		C403.3,49.3,402.3,50.4,401,50.4z"/>
	<g id="XMLID_50_">
		<path id="XMLID_26_" d="M348.3,44.3c-0.8-2-1.3-3.8-1.3-3.8l4.3-6.8h-3.6l-1.9,3c0,0-0.7-2.3-2.6-3.2c-1.9-0.8-4.7-0.2-6.8,1.2
			c-2,1.5-4.3,4.3-4.6,7.2c-0.3,3,2,5.2,5,5.3c3,0.1,5.2-0.9,8.1-3.8c0,0,0.4,2.3,2,3.3c1.6,1,3.8,0.6,5-0.9
			C352,45.7,349.1,46.3,348.3,44.3z M339.6,44.7c-0.2,0.1-2.3,1.6-3.7,0.5c-1.4-1.2-0.9-3.8,0.1-6.1c1.1-2.3,3.3-5,5.3-4.4
			c2,0.7,2.5,5.1,2.5,5.1C341.7,43.3,339.8,44.5,339.6,44.7z"/>
		<g id="XMLID_54_">
			<path id="XMLID_55_" class="st1" d="M353.3,33.7h2.9v10.6h5.2v2.5h-8.1V33.7z"/>
			<path id="XMLID_22_" class="st1" d="M363.2,33.9c0.9-0.2,2.2-0.3,4-0.3c1.8,0,3.1,0.3,4,1c0.9,0.7,1.4,1.7,1.4,3
				c0,1.3-0.4,2.4-1.2,3.1c-1,0.9-2.5,1.4-4.2,1.4c-0.4,0-0.7,0-1-0.1v4.7h-2.9V33.9z M366.1,39.8c0.3,0.1,0.5,0.1,1,0.1
				c1.6,0,2.5-0.8,2.5-2.1c0-1.2-0.8-1.9-2.3-1.9c-0.6,0-1,0-1.2,0.1V39.8z"/>
			<path id="XMLID_20_" class="st1" d="M377.4,33.7v5h4.9v-5h2.9v13.1h-2.9v-5.5h-4.9v5.5h-2.9V33.7H377.4z"/>
			<path id="XMLID_17_" class="st1" d="M390.8,43.4l-0.9,3.4h-3l4-13.1h3.9l4.1,13.1h-3.2l-1-3.4H390.8z M394.1,41.2l-0.8-2.8
				c-0.2-0.8-0.5-1.7-0.7-2.5h0c-0.2,0.8-0.4,1.8-0.6,2.5l-0.8,2.8H394.1z"/>
		</g>
	</g>
</g>
</svg>
