<?xml version="1.0" encoding="utf-8"?>
<!-- Generator: Adobe Illustrator 19.0.0, SVG Export Plug-In . SVG Version: 6.00 Build 0)  -->
<svg version="1.1" id="Layer_1" xmlns="http://www.w3.org/2000/svg" xmlns:xlink="http://www.w3.org/1999/xlink" x="0px" y="0px"
	 viewBox="0 0 1920 1080" style="enable-background:new 0 0 1920 1080;" xml:space="preserve">
<style type="text/css">
	.st0{fill:url(#XMLID_3_);}
	.st1{fill:#FFFFFF;}
	.st2{fill:url(#XMLID_4_);}
</style>
<g id="XMLID_5_">
	<radialGradient id="XMLID_3_" cx="960" cy="540" r="778.8453" gradientUnits="userSpaceOnUse">
		<stop  offset="0" style="stop-color:#FFFFFF"/>
		<stop  offset="1" style="stop-color:#DFDFDF"/>
	</radialGradient>
	<polygon id="XMLID_1_" class="st0" points="931.3,0 951.3,396.1 938.3,396.5 875.7,0 813.7,0 917.6,398 903,399.6 753,0 685.7,0 
		888.9,401.7 873.9,404.4 609,0 521.7,0 858.9,407.7 839.4,413 420,0 288.3,0 823.6,418.1 799.3,427.8 116.3,0 0,0 0,54.3 
		772.5,441.4 746.3,458.4 0,173.7 0,287.7 727.5,475.2 708.2,498.6 0,391.7 0,487 694,526.9 688.6,555.3 0,589.7 0,691 691.1,582.9 
		701.3,609.8 0,795.7 0,910.3 716.9,633.1 738.6,655 0,1027.7 0,1080 124.3,1080 761.3,671.7 780.3,682.9 290.3,1080 420,1080 
		803.4,694 823.9,701.9 526.3,1080 610.3,1080 849.1,709.7 867.7,714.3 683,1080 753.7,1080 889.7,718.4 910.7,721.3 814.3,1080 
		874.3,1080 931.8,723.1 952.7,724 931.7,1080 987.7,1080 970.7,723.9 988.5,723.1 1045.7,1080 1105.7,1080 1009.3,721.3 
		1030,718.5 1167,1080 1236.3,1080 1047.3,715.3 1067.2,710.7 1312.3,1080 1399,1080 1090.5,703.8 1115.2,694.6 1500,1080 
		1627,1080 1136.6,684.5 1163.9,668.2 1784.3,1080 1920,1080 1920,1029.7 1182.8,653.8 1203,633.1 1920,905 1920,803.7 
		1219.9,607.5 1228.8,583.2 1920,684.3 1920,589 1231.4,555.2 1226.3,528 1920,483.7 1920,386.3 1214.4,502.6 1195.7,478.6 
		1920,278.3 1920,175.7 1171.1,456.8 1149.8,442.7 1920,51.7 1920,0 1791.7,0 1128.4,431.3 1105,421 1624.3,0 1500,0 1087,415 
		1064.1,408.5 1398.3,0 1307,0 1052.9,405.8 1028.9,401.3 1237,0 1163,0 1019.5,399.9 998,397.6 1104.3,0 1045,0 987.7,396.8 
		968.1,396 987.7,0 	"/>
	<g id="XMLID_40_">
		<polygon id="XMLID_9_" class="st1" points="609,0 873.9,404.4 888.9,401.7 685.7,0 		"/>
		<polygon id="XMLID_10_" class="st1" points="753,0 903,399.6 917.6,398 813.7,0 		"/>
		<polygon id="XMLID_11_" class="st1" points="875.7,0 938.3,396.5 951.3,396.1 931.3,0 		"/>
		<polygon id="XMLID_12_" class="st1" points="987.7,0 968.1,396 987.7,396.8 1045,0 		"/>
		<polygon id="XMLID_13_" class="st1" points="1104.3,0 998,397.6 1019.5,399.9 1163,0 		"/>
		<polygon id="XMLID_14_" class="st1" points="1237,0 1028.9,401.3 1052.9,405.8 1307,0 		"/>
		<polygon id="XMLID_15_" class="st1" points="1398.3,0 1064.1,408.5 1087,415 1500,0 		"/>
		<polygon id="XMLID_16_" class="st1" points="1624.3,0 1105,421 1128.4,431.3 1791.7,0 		"/>
		<polygon id="XMLID_17_" class="st1" points="1920,51.7 1149.8,442.7 1171.1,456.8 1920,175.7 		"/>
		<polygon id="XMLID_18_" class="st1" points="1920,278.3 1195.7,478.6 1214.4,502.6 1920,386.3 		"/>
		<polygon id="XMLID_19_" class="st1" points="1920,483.7 1226.3,528 1231.4,555.2 1920,589 		"/>
		<polygon id="XMLID_20_" class="st1" points="1920,684.3 1228.8,583.2 1219.9,607.5 1920,803.7 		"/>
		<polygon id="XMLID_21_" class="st1" points="1920,905 1203,633.1 1182.8,653.8 1920,1029.7 		"/>
		<polygon id="XMLID_22_" class="st1" points="1784.3,1080 1163.9,668.2 1136.6,684.5 1627,1080 		"/>
		<polygon id="XMLID_23_" class="st1" points="1500,1080 1115.2,694.6 1090.5,703.8 1399,1080 		"/>
		<polygon id="XMLID_24_" class="st1" points="1312.3,1080 1067.2,710.7 1047.3,715.3 1236.3,1080 		"/>
		<polygon id="XMLID_25_" class="st1" points="1167,1080 1030,718.5 1009.3,721.3 1105.7,1080 		"/>
		<polygon id="XMLID_26_" class="st1" points="1045.7,1080 988.5,723.1 970.7,723.9 987.7,1080 		"/>
		<polygon id="XMLID_27_" class="st1" points="931.7,1080 952.7,724 931.8,723.1 874.3,1080 		"/>
		<polygon id="XMLID_28_" class="st1" points="814.3,1080 910.7,721.3 889.7,718.4 753.7,1080 		"/>
		<polygon id="XMLID_29_" class="st1" points="683,1080 867.7,714.3 849.1,709.7 610.3,1080 		"/>
		<polygon id="XMLID_30_" class="st1" points="526.3,1080 823.9,701.9 803.4,694 420,1080 		"/>
		<polygon id="XMLID_31_" class="st1" points="290.3,1080 780.3,682.9 761.3,671.7 124.3,1080 		"/>
		<polygon id="XMLID_32_" class="st1" points="0,1027.7 738.6,655 716.9,633.1 0,910.3 		"/>
		<polygon id="XMLID_33_" class="st1" points="0,795.7 701.3,609.8 691.1,582.9 0,691 		"/>
		<polygon id="XMLID_34_" class="st1" points="0,589.7 688.6,555.3 694,526.9 0,487 		"/>
		<polygon id="XMLID_35_" class="st1" points="0,391.7 708.2,498.6 727.5,475.2 0,287.7 		"/>
		<polygon id="XMLID_36_" class="st1" points="0,173.7 746.3,458.4 772.5,441.4 0,54.3 		"/>
		<polygon id="XMLID_37_" class="st1" points="116.3,0 799.3,427.8 823.6,418.1 288.3,0 		"/>
		<polygon id="XMLID_38_" class="st1" points="420,0 839.4,413 858.9,407.7 521.7,0 		"/>
	</g>
	<radialGradient id="XMLID_4_" cx="960" cy="540" r="552.4687" gradientUnits="userSpaceOnUse">
		<stop  offset="0" style="stop-color:#FFFFFF"/>
		<stop  offset="1" style="stop-color:#FFFFFF;stop-opacity:0"/>
	</radialGradient>
	<ellipse id="XMLID_39_" class="st2" cx="960" cy="540" rx="639" ry="449.6"/>
</g>
</svg>
