<?xml version="1.0" encoding="utf-8"?>
<!-- Generator: Adobe Illustrator 19.0.0, SVG Export Plug-In . SVG Version: 6.00 Build 0)  -->
<svg version="1.1" id="Layer_1" xmlns="http://www.w3.org/2000/svg" xmlns:xlink="http://www.w3.org/1999/xlink" x="0px" y="0px"
	 viewBox="0 0 50 50" style="enable-background:new 0 0 50 50;" xml:space="preserve">
<path id="XMLID_130_" d="M37.5,18.4c0-1.1,0-2-0.1-2.9h1.7l0.1,1.8h0c0.5-1,1.8-2,3.6-2c1.5,0,3.8,0.9,3.8,4.6v6.4h-2V20
	c0-1.7-0.6-3.2-2.5-3.2c-1.3,0-2.3,0.9-2.6,2c-0.1,0.2-0.1,0.6-0.1,0.9v6.5h-2V18.4z"/>
<g id="XMLID_4_">
	<path id="XMLID_125_" d="M26.8,26.2v-9.3h-1.5v-1.5h1.5v-0.5c0-1.5,0.4-2.9,1.2-3.8c0.7-0.7,1.7-1,2.6-1c0.7,0,1.3,0.2,1.7,0.3
		L32,12c-0.3-0.1-0.7-0.2-1.2-0.2c-1.7,0-2.1,1.4-2.1,3.1v0.6h2.6v1.5h-2.6v9.3H26.8z"/>
	<path id="XMLID_127_" d="M35.9,12.4c0,0.7-0.5,1.2-1.2,1.2c-0.7,0-1.2-0.5-1.2-1.2c0-0.7,0.5-1.2,1.2-1.2
		C35.4,11.2,35.9,11.7,35.9,12.4z M33.7,26.2V15.4h2v10.7H33.7z"/>
	<g id="XMLID_36_">
		<path id="XMLID_37_" d="M5.1,7.2c0,0-1.4,0.2-2.2,0.1C2,7.3,2.3,6.9,2.3,6.9s0.1-0.2,0.8-0.5C3.8,6,4.8,5.6,5.8,5.5
			c1-0.1,2.6-0.3,4.9,0.6s6.4,4.9,7.9,12.1s1.4,11.4,5.6,17.2c3.3,4.6,7.9,6.6,12,6.2c3.9-0.4,6.3-2.2,7.3-3.8
			c1.1-1.6,2-3.5,0.7-5.6c-1.3-2.2-3.4-2.7-3.4-2.7s-2.2-0.6-2.7-0.6c-0.5,0-0.7-0.3-0.4-0.6c0.3-0.3,0.8-0.6,1.6-0.6
			c0.8,0,3.5,0.4,4.9,1.2s4.6,2.3,3.2,7.5s-6.8,7.4-9.9,8c-3.1,0.6-9.4,1.2-14.6-4S16.3,26.7,16,25c-0.2-1.8-1.4-11.5-5.9-16.5
			C8.5,6.8,6.4,7.1,5.1,7.2z"/>
	</g>
	<path id="XMLID_1_" d="M24.2,20.3H9c-0.7,0-1.3-0.6-1.3-1.3v0c0-0.7,0.6-1.3,1.3-1.3h15.2c0.7,0,1.3,0.6,1.3,1.3v0
		C25.5,19.7,24.9,20.3,24.2,20.3z"/>
	<path id="XMLID_3_" d="M23.1,24H10.5c-0.7,0-1.2-0.5-1.2-1.2v0c0-0.7,0.5-1.2,1.2-1.2h12.6c0.7,0,1.2,0.5,1.2,1.2v0
		C24.3,23.5,23.8,24,23.1,24z"/>
</g>
<g id="XMLID_2_">
	<path id="XMLID_17_" d="M40.5,0.5c5,0,9,4,9,9v31c0,5-4,9-9,9h-31c-5,0-9-4-9-9v-31c0-5,4-9,9-9H40.5 M40.5,0h-31
		C4.3,0,0,4.3,0,9.5v31C0,45.8,4.3,50,9.5,50h31c5.2,0,9.5-4.3,9.5-9.5v-31C50,4.3,45.7,0,40.5,0L40.5,0z"/>
</g>
</svg>
