<!--?xml version="1.0" encoding="utf-8"?-->
<!-- Generator: Adobe Illustrator 19.0.0, SVG Export Plug-In . SVG Version: 6.00 Build 0)  -->
<svg version="1.1" id="Layer_1" xmlns="http://www.w3.org/2000/svg" xmlns:xlink="http://www.w3.org/1999/xlink" x="0px" y="0px" viewBox="-222 345.9 150 150" style="" xml:space="preserve">
<script xlink:href="http://cdnjs.cloudflare.com/ajax/libs/jquery/2.0.0/jquery.min.js"></script>
<style type="text/css">
	.st0{fill:url(#skyGradient);}
	.st1{fill:none;stroke:#FFFFFF;stroke-width:3.5006;stroke-linecap:round;stroke-linejoin:round;stroke-miterlimit:10;}
	.st2{fill:#FFFFFF;}
	.st3{fill:none;stroke:#FFFFFF;stroke-width:5.8343;stroke-miterlimit:10;}
	.st4{fill:#FFFFFF;stroke:url(#skyGradient);stroke-width:4.6674;stroke-miterlimit:10;}
	.st5{fill:url(#skyGradient);}
	.st6{fill:none;stroke:url(#skyGradient);stroke-width:3.5006;stroke-linecap:round;stroke-linejoin:round;stroke-miterlimit:10;}
	.st7{font-family:'MyriadPro-Bold';}
	.st8{font-size:7.3408px;}
	.st9{fill:none;stroke:url(#skyGradient);stroke-width:2.9171;stroke-linecap:round;stroke-linejoin:round;stroke-miterlimit:10;}
	.st10{fill:none;stroke:url(#skyGradient);stroke-width:1.1669;stroke-linecap:round;stroke-linejoin:round;stroke-miterlimit:10;}
	.st11{fill:none;stroke:url(#skyGradient);stroke-width:7;stroke-miterlimit:10;}
	svg:hover .st{
		stroke:url(#skyGradient);
	}
	svg:hover .st0{
		fill:url(#skyGradient);
	} 
</style>

<defs>
    <linearGradient id="skyGradient" x1="100%" y1="100%">
      <stop offset="0%" stop-color="lightblue" stop-opacity=".5">
        <animate attributeName="stop-color" values="lightblue;blue;red;red;black;red;red;purple;lightblue;lightblue;blue;red;red;black;red;red;purple;lightblue;lightblue;blue;red;red;black;red;red;purple;lightblue;lightblue;blue;red;red;black;red;red;purple;lightblue;lightblue;blue;red;red;black;red;red;purple;lightblue" dur="10s" repeatCount="indefinite" />
      </stop>
      <stop offset="100%" stop-color="lightblue" stop-opacity=".5">
        <animate attributeName="stop-color" values="lightblue;orange;purple;purple;black;purple;purple;blue;lightblue;lightblue;orange;purple;purple;black;purple;purple;blue;lightblue;lightblue;orange;purple;purple;black;purple;purple;blue;lightblue" dur="6s" repeatCount="indefinite" />
        <animate attributeName="offset" values=".95;.80;.60;.40;.20;0;.20;.40;.60;.80;.95" dur="6s" repeatCount="indefinite" />
      </stop>
    </linearGradient>
</defs>

<path id="XMLID_434_" class="st st0 QVkEcQuk_0" d="M-124.6,424.4l-62.4,20.7c-2.2,0.7-4.6-0.5-5.3-2.7l-12.6-38.1c-0.7-2.2,0.5-4.6,2.7-5.3
	l62.4-20.7c2.2-0.7,4.6,0.5,5.3,2.7l12.6,38.2C-121.2,421.3-122.4,423.7-124.6,424.4z"></path>
<path id="XMLID_433_" class="st st1 QVkEcQuk_1" d="M-188.2,424.7L-156.9,414.3"></path>
<path id="XMLID_432_" class="st st2 QVkEcQuk_2" d="M-180.2,415l-9.4,3.1c-1.2,0.4-2.6-0.3-3-1.5l-2.4-7.3c-0.4-1.2,0.3-2.6,1.5-3l9.4-3.1
	c1.2-0.4,2.6,0.3,3,1.5l2.4,7.3C-178.3,413.2-178.9,414.6-180.2,415z"></path>
<path id="XMLID_431_" class="st3 QVkEcQuk_3" d="M-97.6,458.6h-67.2c-3.3,0-6.1-2.7-6.1-6.1v-41.2c0-3.3,2.7-6.1,6.1-6.1h67.2
	c3.3,0,6.1,2.7,6.1,6.1v41.3C-91.5,455.9-94.2,458.6-97.6,458.6z"></path>
<path id="XMLID_430_" class="st st4 QVkEcQuk_4" d="M-98.1,456.3h-66c-2.2,0-4-1.8-4-4v-40.5c0-2.2,1.8-4,4-4h66c2.2,0,4,1.8,4,4v40.5
	C-94.1,454.5-95.9,456.3-98.1,456.3z"></path>
<path id="XMLID_429_" class="st st5 QVkEcQuk_5" width="72.2" height="9.6" d="M-167.2 415.8 L-94.99999999999999 415.8 L-94.99999999999999 425.40000000000003 L-167.2 425.40000000000003 Z"></path>
<path id="XMLID_428_" class="st st6 QVkEcQuk_6" d="M-160.2,432.4L-127.2,432.4"></path>
<text id="XMLID_427_" transform="matrix(0.7364 0 0 1 -125.7823 451.4802)" class="st st7 st8">Debit Card</text>
<path id="XMLID_426_" class="st st9 QVkEcQuk_7" d="M-157.8,438.3L-129.7,438.3"></path>
<path id="XMLID_425_" class="st st10 QVkEcQuk_8" d="M-155.7,443L-131.7,443"></path>
<path class="st st11 QVkEcQuk_9" d="M-219.5,420.9A72.5,72.5 0,1,1 -74.5,420.9A72.5,72.5 0,1,1 -219.5,420.9"></path>
<style>.QVkEcQuk_0{stroke-dasharray:239 241;stroke-dashoffset:240;animation:QVkEcQuk_draw 2000ms linear 0ms forwards;}.QVkEcQuk_1{stroke-dasharray:33 35;stroke-dashoffset:34;animation:QVkEcQuk_draw 2000ms linear 111ms forwards;}.QVkEcQuk_2{stroke-dasharray:51 53;stroke-dashoffset:52;animation:QVkEcQuk_draw 2000ms linear 222ms forwards;}.QVkEcQuk_3{stroke-dasharray:256 258;stroke-dashoffset:257;animation:QVkEcQuk_draw 2000ms linear 333ms forwards;}.QVkEcQuk_4{stroke-dasharray:239 241;stroke-dashoffset:240;animation:QVkEcQuk_draw 2000ms linear 444ms forwards;}.QVkEcQuk_5{stroke-dasharray:164 166;stroke-dashoffset:165;animation:QVkEcQuk_draw 2000ms linear 555ms forwards;}.QVkEcQuk_6{stroke-dasharray:33 35;stroke-dashoffset:34;animation:QVkEcQuk_draw 2000ms linear 666ms forwards;}.QVkEcQuk_7{stroke-dasharray:29 31;stroke-dashoffset:30;animation:QVkEcQuk_draw 2000ms linear 777ms forwards;}.QVkEcQuk_8{stroke-dasharray:24 26;stroke-dashoffset:25;animation:QVkEcQuk_draw 2000ms linear 888ms forwards;}.QVkEcQuk_9{stroke-dasharray:456 458;stroke-dashoffset:457;animation:QVkEcQuk_draw 2000ms linear 1000ms forwards;}@keyframes QVkEcQuk_draw{100%{stroke-dashoffset:0;}}@keyframes QVkEcQuk_fade{0%{stroke-opacity:1;}94.44444444444444%{stroke-opacity:1;}100%{stroke-opacity:0;}}</style>
<script type="text/ecmascript">
<![CDATA[
	$('svg').hover(
	function(){
		location.reload();
	},
	function(e){
		e.preventDefault();
	});
]]>
</script>
</svg>
