<!--?xml version="1.0" encoding="utf-8"?-->
<!-- Generator: Adobe Illustrator 19.0.0, SVG Export Plug-In . SVG Version: 6.00 Build 0)  -->
<svg version="1.1" id="Layer_1" xmlns="http://www.w3.org/2000/svg" xmlns:xlink="http://www.w3.org/1999/xlink" x="0px" y="0px" viewBox="-222 345.9 150 150" style="" xml:space="preserve">
<style type="text/css">
	.st0{fill:none;stroke:url(#skyGradient);stroke-width:7;stroke-miterlimit:10;}
	.st1{fill:none;stroke:url(#skyGradient);stroke-width:2;stroke-linecap:round;stroke-linejoin:round;stroke-miterlimit:10;}
	.st2{fill:url(#skyGradient);}
	svg:hover .st{
		stroke:url(#skyGradient);
	}

</style>

<defs>
    <linearGradient id="skyGradient" x1="100%" y1="100%">
      <stop offset="0%" stop-color="lightblue" stop-opacity=".5">
        <animate attributeName="stop-color" values="lightblue;blue;red;red;black;red;red;purple;lightblue;lightblue;blue;red;red;black;red;red;purple;lightblue;lightblue;blue;red;red;black;red;red;purple;lightblue;lightblue;blue;red;red;black;red;red;purple;lightblue;lightblue;blue;red;red;black;red;red;purple;lightblue" dur="10s" repeatCount="indefinite" />
      </stop>
      <stop offset="100%" stop-color="lightblue" stop-opacity=".5">
        <animate attributeName="stop-color" values="lightblue;orange;purple;purple;black;purple;purple;blue;lightblue;lightblue;orange;purple;purple;black;purple;purple;blue;lightblue;lightblue;orange;purple;purple;black;purple;purple;blue;lightblue" dur="6s" repeatCount="indefinite" />
        <animate attributeName="offset" values=".95;.80;.60;.40;.20;0;.20;.40;.60;.80;.95" dur="6s" repeatCount="indefinite" />
      </stop>
    </linearGradient>
</defs>

<path class="st st0 vAuAXOnn_0" d="M-219.6,421A72.5,72.5 0,1,1 -74.6,421A72.5,72.5 0,1,1 -219.6,421"></path>
<g>
	<path class="st st1 vAuAXOnn_1" d="M-103.9,429.2l-0.4-2.2c-0.1-0.8-0.3-1.5-0.4-2.2c-0.2-0.7-0.4-1.5-0.6-2.2l-0.7-2.2c-1-2.8-2.4-5.6-4-8.1
		c-3.3-5-7.7-9.2-12.4-12.8l-1.8-1.3c-0.6-0.4-1.2-0.8-1.7-1.3c-1.1-0.9-2.2-1.8-3.2-2.9c-2-2-3.6-4.4-4.9-6.9
		c-0.6-1.3-1.1-2.6-1.6-4c-0.4-1.3-0.4-2.7,0.1-3.9c0.1-0.3,0.3-0.6,0.5-0.9c0.1-0.1,0.2-0.3,0.3-0.4c0.1-0.2,0.2-0.3,0.3-0.4
		l1.4-1.7c0.9-1.1,2-2.1,3-3.1l3.7-4.4l0.7-0.6l-1,0.3l-2.4,0.7c-0.8,0.2-1.6,0.5-2.4,0.5c-0.4,0-0.8,0-1.2-0.2
		c-0.4-0.1-0.7-0.3-1.2-0.4c-0.8-0.3-1.8-0.3-2.6-0.1c-0.8,0.2-1.6,0.5-2.5,0.6c-0.8,0.1-1.7,0.2-2.5,0.2s-1.7-0.1-2.5-0.2h-3.4
		h-3.1c-0.8,0.1-1.7,0.2-2.5,0.2s-1.7-0.1-2.5-0.2c-0.9-0.1-1.7-0.4-2.5-0.6s-1.8-0.2-2.6,0.1c-0.5,0.1-0.8,0.3-1.2,0.4
		c-0.4,0.2-0.8,0.2-1.2,0.2c-0.8,0-1.6-0.3-2.4-0.5l-2.4-0.7l-1-0.3l0.7,0.6l3.7,4.4c1,1,2.1,2,3,3.1l1.4,1.7
		c0.1,0.1,0.2,0.2,0.3,0.4c0.1,0.1,0.2,0.3,0.3,0.4c0.2,0.3,0.4,0.6,0.5,0.9c0.5,1.2,0.5,2.6,0.1,3.9c-0.5,1.4-1,2.7-1.6,4
		c-1.3,2.5-2.9,4.9-4.9,6.9c-1,1.1-2.1,2-3.2,2.9c-0.5,0.5-1.1,0.9-1.7,1.3l-1.8,1.3c-4.7,3.6-9.1,7.8-12.4,12.8
		c-1.6,2.5-3,5.3-4,8.1l-0.7,2.2c-0.2,0.7-0.4,1.5-0.6,2.2c-0.1,0.7-0.3,1.4-0.4,2.2l-0.4,2.2c-0.4,3-0.7,6-0.7,9s0.2,6,0.8,9
		c0.5,3,1.5,5.9,2.9,8.7c1.4,2.8,3.2,5.4,5.4,7.6s4.7,4.1,7.4,5.6s5.7,2.4,8.7,3c6.4,1.4,12.5,2.5,18.7,2.3
		c6.2,0.2,12.4-0.8,18.8-2.2c3-0.6,6-1.5,8.7-3s5.2-3.4,7.4-5.6c2.2-2.2,4-4.8,5.4-7.6c1.4-2.8,2.4-5.7,2.9-8.7c0.6-3,0.8-6,0.8-9
		S-103.5,432.2-103.9,429.2z"></path>
	<path class="st st1 vAuAXOnn_2" d="M-159,384c0,0,8.6,4.4,23.8,0.9"></path>
	<path class="st st1 vAuAXOnn_3" d="M-158,396.4L-149.9,385.6L-153,374.5"></path>
	<path class="st st1 vAuAXOnn_4" d="M-146.8,397.5L-146.3,386.2"></path>
	<path class="st st1 vAuAXOnn_5" d="M-135,395.1L-142.1,386.3"></path>
	<path class="st st1 vAuAXOnn_6" d="M-140.1,377.5L-142.7,386.1"></path>
</g>
<g id="XMLID_1_">
	<path id="XMLID_2_" class="st st2 vAuAXOnn_7" d="M-174.4,424.8c1.8-0.3,4.1-0.5,6.5-0.5c4.1,0,6.8,0.8,8.8,2.3c2.2,1.7,3.6,4.3,3.6,8.1
		c0,4.1-1.5,6.9-3.5,8.7c-2.3,1.9-5.7,2.8-9.9,2.8c-2.5,0-4.3-0.2-5.5-0.3C-174.4,445.9-174.4,424.8-174.4,424.8z M-169.6,442.2
		c0.4,0.1,1.1,0.1,1.7,0.1c4.4,0,7.3-2.4,7.3-7.5c0-4.5-2.6-6.8-6.8-6.8c-1,0-1.8,0.1-2.2,0.2V442.2z"></path>
	<path id="XMLID_5_" class="st st2 vAuAXOnn_8" d="M-152.3,424.7c1.5-0.3,3.6-0.4,6.6-0.4s5.1,0.6,6.6,1.7c1.4,1.1,2.3,2.9,2.3,5
		c0,2.1-0.7,3.9-2,5.1c-1.7,1.5-4.1,2.3-7,2.3c-0.6,0-1.2,0-1.7-0.1v7.7h-4.8V424.7z M-147.5,434.5c0.4,0.1,0.9,0.1,1.6,0.1
		c2.6,0,4.2-1.3,4.2-3.5c0-2-1.4-3.1-3.8-3.1c-1,0-1.6,0.1-2,0.2C-147.5,428.2-147.5,434.5-147.5,434.5z"></path>
	<path id="XMLID_24_" class="st st2 vAuAXOnn_9" d="M-133.6,440.9c1.3,0.7,3.3,1.3,5.4,1.3c2.2,0,3.4-0.9,3.4-2.3c0-1.3-1-2.1-3.6-3
		c-3.6-1.3-5.9-3.2-5.9-6.4c0-3.7,3.1-6.4,8.1-6.4c2.4,0,4.2,0.5,5.5,1.1l-1.1,3.9c-0.8-0.4-2.4-1-4.5-1c-2.1,0-3.1,1-3.1,2.1
		c0,1.4,1.2,2,4,3c3.8,1.4,5.5,3.4,5.5,6.4c0,3.6-2.7,6.6-8.6,6.6c-2.4,0-4.9-0.7-6.1-1.3L-133.6,440.9z"></path>
</g>
<style>.vAuAXOnn_0{stroke-dasharray:456 458;stroke-dashoffset:457;animation:vAuAXOnn_draw 2000ms linear 0ms forwards;}.vAuAXOnn_1{stroke-dasharray:346 348;stroke-dashoffset:347;animation:vAuAXOnn_draw 2000ms linear 111ms forwards;}.vAuAXOnn_2{stroke-dasharray:25 27;stroke-dashoffset:26;animation:vAuAXOnn_draw 2000ms linear 222ms forwards;}.vAuAXOnn_3{stroke-dasharray:26 28;stroke-dashoffset:27;animation:vAuAXOnn_draw 2000ms linear 333ms forwards;}.vAuAXOnn_4{stroke-dasharray:12 14;stroke-dashoffset:13;animation:vAuAXOnn_draw 2000ms linear 444ms forwards;}.vAuAXOnn_5{stroke-dasharray:12 14;stroke-dashoffset:13;animation:vAuAXOnn_draw 2000ms linear 555ms forwards;}.vAuAXOnn_6{stroke-dasharray:9 11;stroke-dashoffset:10;animation:vAuAXOnn_draw 2000ms linear 666ms forwards;}.vAuAXOnn_7{stroke-dasharray:113 115;stroke-dashoffset:114;animation:vAuAXOnn_draw 2000ms linear 777ms forwards;}.vAuAXOnn_8{stroke-dasharray:90 92;stroke-dashoffset:91;animation:vAuAXOnn_draw 2000ms linear 888ms forwards;}.vAuAXOnn_9{stroke-dasharray:92 94;stroke-dashoffset:93;animation:vAuAXOnn_draw 2000ms linear 1000ms forwards;}@keyframes vAuAXOnn_draw{100%{stroke-dashoffset:0;}}@keyframes vAuAXOnn_fade{0%{stroke-opacity:1;}94.44444444444444%{stroke-opacity:1;}100%{stroke-opacity:0;}}</style>
<script type="text/ecmascript">
<![CDATA[
	$('svg').hover(
	function(){
		location.reload();
	},
	function(e){
		e.preventDefault();
	});
]]>
</script>
</svg>
